<svg width="1466" height="731" viewBox="0 0 1466 731" fill="none" xmlns="http://www.w3.org/2000/svg">
<g clip-path="url(#clip0_8_83)">
<path d="M283.22 59.5508L182.479 101.78H1306.5L1246.5 59.5508H283.22Z" stroke="black" stroke-width="5.08789"/>
<path d="M936.459 99.4259L753 43L569.541 99.4259H936.459Z" fill="black"/>
<path d="M936.459 99.4259H1376.21H1396.13H1416V562H37V175.166V166.525V99.4259H569.541M936.459 99.4259L753 43L569.541 99.4259M936.459 99.4259H569.541" stroke="black" stroke-width="1.01758"/>
<path d="M182.988 211.679H124.986V312.928H182.988V211.679Z" stroke="black" stroke-width="1.01758"/>
<path d="M144.829 211.679V312.928M163.146 211.679L161.619 312.928M124.986 236.609H182.988M124.986 261.54H182.988M124.986 287.488H182.988" stroke="black" stroke-width="1.01758"/>
<path d="M347.836 211.17H289.834V312.419H347.836V211.17Z" stroke="black" stroke-width="1.01758"/>
<path d="M309.677 211.17V312.419M327.993 211.17L326.467 312.419M289.834 236.101H347.836M289.834 261.031H347.836M289.834 286.979H347.836" stroke="black" stroke-width="1.01758"/>
<path d="M512.684 211.17H454.682V312.419H512.684V211.17Z" stroke="black" stroke-width="1.01758"/>
<path d="M474.524 211.17V312.419M492.841 211.17L491.314 312.419M454.682 236.101H512.684M454.682 261.031H512.684M454.682 286.979H512.684" stroke="black" stroke-width="1.01758"/>
<path d="M1043.86 211.17H985.857V312.419H1043.86V211.17Z" stroke="black" stroke-width="1.01758"/>
<path d="M1005.7 211.17V312.419M1024.02 211.17L1022.49 312.419M985.857 236.101H1043.86M985.857 261.031H1043.86M985.857 286.979H1043.86" stroke="black" stroke-width="1.01758"/>
<path d="M1336.92 211.17H1278.92V312.419H1336.92V211.17Z" stroke="black" stroke-width="1.01758"/>
<path d="M1298.76 211.17V312.419M1317.08 211.17L1315.55 312.419M1278.92 236.101H1336.92M1278.92 261.031H1336.92M1278.92 286.979H1336.92" stroke="black" stroke-width="1.01758"/>
<path d="M1190.39 211.17H1132.39V312.419H1190.39V211.17Z" stroke="black" stroke-width="1.01758"/>
<path d="M1152.23 211.17V312.419M1170.55 211.17L1169.02 312.419M1132.39 236.101H1190.39M1132.39 261.031H1190.39M1132.39 286.979H1190.39" stroke="black" stroke-width="1.01758"/>
<path d="M673.461 310.893V208.117H715.69M828.133 310.893V208.117H785.903M722.305 208.117H779.798" stroke="black" stroke-width="1.01758"/>
<path d="M715.182 208.117V310.384" stroke="black" stroke-width="1.01758"/>
<path d="M722.813 208.626V310.384" stroke="black" stroke-width="1.01758"/>
<path d="M779.289 208.117V235.592M779.289 310.384V235.592M786.412 208.117V310.384M673.461 235.592H715.182M673.461 261.031H715.182M715.182 286.979H673.461M695.339 208.117V310.384M723.322 235.592H779.289" stroke="black" stroke-width="1.01758"/>
<path d="M741.639 208.117V310.384M760.464 208.117V310.384M722.813 261.031H779.289M722.813 286.979H779.289M807.272 208.117V310.384M786.921 235.592H828.133M786.921 261.031H828.133M786.921 286.979H828.133" stroke="black" stroke-width="1.01758"/>
<path d="M122.442 518.479H177.9M122.442 494.057H177.9M122.442 468.617H177.9M122.442 443.687H177.9M140.759 543.918H122.442V419.773C144.105 413.756 156.238 413.811 177.9 419.773V543.918H159.33M140.759 543.918V415.879M140.759 543.918H159.33M159.33 543.918L159.48 415.879" stroke="black" stroke-width="1.01758"/>
<path d="M455.699 518.9H511.157M455.699 494.479H511.157M455.699 469.039H511.157M455.699 444.108H511.157M474.016 544.34H455.699V420.195C477.362 414.178 489.495 414.233 511.157 420.195V544.34H492.586M474.016 544.34V416.301M474.016 544.34H492.586M492.586 544.34L492.737 416.301" stroke="black" stroke-width="1.01758"/>
<path d="M1280.96 518.9H1336.41M1280.96 494.479H1336.41M1280.96 469.039H1336.41M1280.96 444.108H1336.41M1299.27 544.34H1280.96V420.195C1302.62 414.178 1314.75 414.233 1336.41 420.195V544.34H1317.84M1299.27 544.34V416.301M1299.27 544.34H1317.84M1317.84 544.34L1317.99 416.301" stroke="black" stroke-width="1.01758"/>
<path d="M987.893 518.9H1043.35M987.893 494.479H1043.35M987.893 469.039H1043.35M987.893 444.108H1043.35M1006.21 544.34H987.893V420.195C1009.56 414.178 1021.69 414.233 1043.35 420.195V544.34H1024.78M1006.21 544.34V416.301M1006.21 544.34H1024.78M1024.78 544.34L1024.93 416.301" stroke="black" stroke-width="1.01758"/>
<path d="M1134.42 518.9H1189.88M1134.42 494.479H1189.88M1134.42 469.039H1189.88M1134.42 444.108H1189.88M1152.74 544.34H1134.42V420.195C1156.09 414.178 1168.22 414.233 1189.88 420.195V544.34H1171.31M1152.74 544.34V416.301M1152.74 544.34H1171.31M1171.31 544.34L1171.46 416.301" stroke="black" stroke-width="1.01758"/>
<path d="M290.852 518.9H346.31M290.852 494.479H346.31M290.852 469.039H346.31M290.852 444.108H346.31M309.168 544.34H290.852V420.195C312.515 414.178 324.647 414.233 346.31 420.195V544.34H327.739M309.168 544.34V416.301M309.168 544.34H327.739M327.739 544.34L327.889 416.301" stroke="black" stroke-width="1.01758"/>
<path d="M780.815 413.159V385.176C773.351 383.773 766.939 382.818 760.904 382.314M780.815 413.159H721.287M780.815 413.159V444.195M721.287 413.159V385.176C728.724 383.771 735.115 382.818 741.13 382.314M721.287 413.159V444.195M721.287 444.195H780.815M721.287 444.195V470.652M780.815 444.195V470.652M721.287 470.652V496.092M721.287 470.652H741.13M780.815 470.652V496.092M780.815 470.652H760.973M780.815 496.092H721.287M780.815 496.092V522.04M721.287 496.092V522.04M721.287 522.04H780.815M721.287 522.04V546.462M780.815 522.04V546.462M780.815 546.462V555.62H721.287V546.462M780.815 546.462H760.973M721.287 546.462H741.13M741.13 546.462V470.652M741.13 546.462H760.973M741.13 470.652H760.973M741.13 470.652V382.314M760.973 546.462V470.652M760.973 470.652L760.904 382.314M741.13 382.314C747.88 381.749 754.157 381.75 760.904 382.314M714.164 444.195V418.756H696.356M714.164 444.195H658.197M714.164 444.195V470.652M658.197 444.195V418.756H677.531M658.197 444.195V470.652M714.164 470.652V496.346M714.164 470.652H686.181H658.197M658.197 470.652V496.346M714.164 496.346V522.04H696.356M714.164 496.346H658.197M658.197 496.346V522.04H677.531M696.356 522.04V418.756M696.356 522.04H677.531M696.356 418.756H677.531M677.531 522.04V418.756M788.447 444.195V418.756H806.255M788.447 444.195H844.414M788.447 444.195V470.652M844.414 444.195V418.756H825.08M844.414 444.195V470.652M788.447 470.652V496.346M788.447 470.652H816.431H844.414M844.414 470.652V496.346M788.447 496.346V522.04H806.255M788.447 496.346H844.414M844.414 496.346V522.04H825.08M806.255 522.04V418.756M806.255 522.04H825.08M806.255 418.756H825.08M825.08 522.04V418.756M714.164 386.702C693.154 391.16 677.985 397.32 658.197 413.159H714.164V386.702ZM788.447 386.702C809.457 391.16 824.626 397.32 844.414 413.159H788.447V386.702Z" stroke="black" stroke-width="1.01758"/>
<path d="M220.359 106.359V139.431H257.547V106.359H220.359Z" fill="black"/>
<path d="M385.923 106.359V139.431H423.111V106.359H385.923Z" fill="black"/>
<path d="M570.845 106.359V99.7451H37.4746V106.359H43.5877H79.2476H220.359H257.547H385.923H423.111H555.562H570.845Z" fill="black"/>
<path d="M79.2476 139.431V106.359H43.5877V145.536H79.2476V139.431Z" fill="black"/>
<path d="M570.845 99.7451V106.359H555.562V139.431V145.536H953.934V139.431V105.851H937.123V99.7451H570.845Z" fill="black"/>
<path d="M937.123 99.7451V105.851H953.934H1069.06H1104.21H1214.76H1252.97H1380.32H1415.47V99.7451H937.123Z" fill="black"/>
<path d="M1214.76 105.851V139.431H1252.97V105.851H1214.76Z" fill="black"/>
<path d="M1069.06 105.851V139.431H1104.21V105.851H1069.06Z" fill="black"/>
<path d="M1415.47 105.851H1380.32V139.431V145.536H1415.47V105.851Z" fill="black"/>
<path d="M570.845 99.7451V106.359H555.562M570.845 99.7451H37.4746V106.359H43.5877M570.845 99.7451H937.123M79.2476 139.431V106.359M79.2476 139.431V145.536M79.2476 139.431H220.359M555.562 139.431V106.359M555.562 139.431V145.536M555.562 139.431H423.111M555.562 106.359H423.111M79.2476 106.359H220.359M79.2476 106.359H43.5877M79.2476 106.359V145.536M79.2476 145.536H555.562M79.2476 145.536H43.5877V106.359M555.562 145.536H953.934M937.123 99.7451V105.851H953.934M937.123 99.7451H1415.47V105.851M1415.47 105.851H1380.32M1415.47 105.851V145.536H1380.32M1380.32 105.851V139.431M1380.32 105.851H1252.97M1380.32 105.851V145.536M953.934 105.851V139.431M953.934 105.851H1069.06M1380.32 139.431V145.536M1380.32 139.431H1252.97M953.934 139.431H1069.06M953.934 139.431V145.536M953.934 145.536H1166.87H1380.32M1069.06 105.851V139.431M1069.06 105.851H1104.21M1069.06 139.431H1104.21M1104.21 105.851V139.431M1104.21 105.851H1214.76M1104.21 139.431H1214.76M1214.76 105.851V139.431M1214.76 105.851H1252.97M1214.76 139.431H1252.97M1252.97 105.851V139.431M220.359 106.359V139.431M220.359 106.359H257.547M220.359 139.431H257.547M257.547 106.359V139.431M257.547 106.359H385.923M257.547 139.431H385.923M385.923 106.359V139.431M385.923 106.359H423.111M385.923 139.431H423.111M423.111 106.359V139.431" stroke="black" stroke-width="1.01758"/>
<path d="M93.4062 111.447C93.1739 109.892 92.5416 108.86 89.3359 106.359H100.529C97.3236 108.86 96.6913 109.892 96.459 111.447V112.974H97.4766V114.5H96.459V120.605C97.1943 122.708 97.8659 123.476 99.5117 124.167V128.237C97.6904 130.123 97.3794 131.25 97.4766 133.325H98.4941V134.343H99.5117V135.869H100.529V138.922H89.3359V135.869H90.3535V134.343H91.3711V133.325H92.3887C92.4858 131.25 92.1748 130.123 90.3535 128.237V124.167C91.9994 123.476 92.6709 122.708 93.4062 120.605V114.5H92.3887V112.974H93.4062V111.447Z" fill="black" stroke="black" stroke-width="0.305273"/>
<path d="M272.5 111.447C272.268 109.892 271.635 108.86 268.43 106.359H279.623C276.417 108.86 275.785 109.892 275.553 111.447V112.974H276.57V114.5H275.553V120.605C276.288 122.708 276.96 123.476 278.605 124.167V128.237C276.784 130.123 276.473 131.25 276.57 133.325H277.588V134.343H278.605V135.869H279.623V138.922H268.43V135.869H269.447V134.343H270.465V133.325H271.482C271.58 131.25 271.269 130.123 269.447 128.237V124.167C271.093 123.476 271.765 122.708 272.5 120.605V114.5H271.482V112.974H272.5V111.447Z" fill="black" stroke="black" stroke-width="0.305273"/>
<path d="M439.383 111.447C439.15 109.892 438.518 108.86 435.312 106.359H446.506C443.3 108.86 442.668 109.892 442.436 111.447V112.974H443.453V114.5H442.436V120.605C443.171 122.708 443.842 123.476 445.488 124.167V128.237C443.667 130.123 443.356 131.25 443.453 133.325H444.471V134.343H445.488V135.869H446.506V138.922H435.312V135.869H436.33V134.343H437.348V133.325H438.365C438.462 131.25 438.151 130.123 436.33 128.237V124.167C437.976 123.476 438.647 122.708 439.383 120.605V114.5H438.365V112.974H439.383V111.447Z" fill="black" stroke="black" stroke-width="0.305273"/>
<path d="M453.629 111.447C453.397 109.892 452.764 108.86 449.559 106.359H460.752C457.546 108.86 456.914 109.892 456.682 111.447V112.974H457.699V114.5H456.682V120.605C457.417 122.708 458.089 123.476 459.734 124.167V128.237C457.913 130.123 457.602 131.25 457.699 133.325H458.717V134.343H459.734V135.869H460.752V138.922H449.559V135.869H450.576V134.343H451.594V133.325H452.611C452.708 131.25 452.397 130.123 450.576 128.237V124.167C452.222 123.476 452.894 122.708 453.629 120.605V114.5H452.611V112.974H453.629V111.447Z" fill="black" stroke="black" stroke-width="0.305273"/>
<path d="M467.875 111.447C467.643 109.892 467.01 108.86 463.805 106.359H474.998C471.792 108.86 471.16 109.892 470.928 111.447V112.974H471.945V114.5H470.928V120.605C471.663 122.708 472.335 123.476 473.98 124.167V128.237C472.159 130.123 471.848 131.25 471.945 133.325H472.963V134.343H473.98V135.869H474.998V138.922H463.805V135.869H464.822V134.343H465.84V133.325H466.857C466.955 131.25 466.644 130.123 464.822 128.237V124.167C466.468 123.476 467.14 122.708 467.875 120.605V114.5H466.857V112.974H467.875V111.447Z" fill="black" stroke="black" stroke-width="0.305273"/>
<path d="M482.121 111.447C481.889 109.892 481.256 108.86 478.051 106.359H489.244C486.038 108.86 485.406 109.892 485.174 111.447V112.974H486.191V114.5H485.174V120.605C485.909 122.708 486.581 123.476 488.227 124.167V128.237C486.405 130.123 486.094 131.25 486.191 133.325H487.209V134.343H488.227V135.869H489.244V138.922H478.051V135.869H479.068V134.343H480.086V133.325H481.104C481.201 131.25 480.89 130.123 479.068 128.237V124.167C480.714 123.476 481.386 122.708 482.121 120.605V114.5H481.104V112.974H482.121V111.447Z" fill="black" stroke="black" stroke-width="0.305273"/>
<path d="M496.367 111.447C496.135 109.892 495.503 108.86 492.297 106.359H503.49C500.285 108.86 499.652 109.892 499.42 111.447V112.974H500.438V114.5H499.42V120.605C500.155 122.708 500.827 123.476 502.473 124.167V128.237C500.651 130.123 500.34 131.25 500.438 133.325H501.455V134.343H502.473V135.869H503.49V138.922H492.297V135.869H493.314V134.343H494.332V133.325H495.35C495.447 131.25 495.136 130.123 493.314 128.237V124.167C494.96 123.476 495.632 122.708 496.367 120.605V114.5H495.35V112.974H496.367V111.447Z" fill="black" stroke="black" stroke-width="0.305273"/>
<path d="M510.613 111.447C510.381 109.892 509.749 108.86 506.543 106.359H517.736C514.531 108.86 513.898 109.892 513.666 111.447V112.974H514.684V114.5H513.666V120.605C514.401 122.708 515.073 123.476 516.719 124.167V128.237C514.897 130.123 514.586 131.25 514.684 133.325H515.701V134.343H516.719V135.869H517.736V138.922H506.543V135.869H507.561V134.343H508.578V133.325H509.596C509.693 131.25 509.382 130.123 507.561 128.237V124.167C509.206 123.476 509.878 122.708 510.613 120.605V114.5H509.596V112.974H510.613V111.447Z" fill="black" stroke="black" stroke-width="0.305273"/>
<path d="M524.859 111.447C524.627 109.892 523.995 108.86 520.789 106.359H531.982C528.777 108.86 528.144 109.892 527.912 111.447V112.974H528.93V114.5H527.912V120.605C528.647 122.708 529.319 123.476 530.965 124.167V128.237C529.144 130.123 528.833 131.25 528.93 133.325H529.947V134.343H530.965V135.869H531.982V138.922H520.789V135.869H521.807V134.343H522.824V133.325H523.842C523.939 131.25 523.628 130.123 521.807 128.237V124.167C523.452 123.476 524.124 122.708 524.859 120.605V114.5H523.842V112.974H524.859V111.447Z" fill="black" stroke="black" stroke-width="0.305273"/>
<path d="M540.123 111.447C539.891 109.892 539.258 108.86 536.053 106.359H547.246C544.04 108.86 543.408 109.892 543.176 111.447V112.974H544.193V114.5H543.176V120.605C543.911 122.708 544.583 123.476 546.229 124.167V128.237C544.407 130.123 544.096 131.25 544.193 133.325H545.211V134.343H546.229V135.869H547.246V138.922H536.053V135.869H537.07V134.343H538.088V133.325H539.105C539.203 131.25 538.892 130.123 537.07 128.237V124.167C538.716 123.476 539.388 122.708 540.123 120.605V114.5H539.105V112.974H540.123V111.447Z" fill="black" stroke="black" stroke-width="0.305273"/>
<path d="M968.523 111.447C968.291 109.892 967.659 108.86 964.453 106.359H975.646C972.441 108.86 971.808 109.892 971.576 111.447V112.974H972.594V114.5H971.576V120.605C972.312 122.708 972.983 123.476 974.629 124.167V128.237C972.808 130.123 972.497 131.25 972.594 133.325H973.611V134.343H974.629V135.869H975.646V138.922H964.453V135.869H965.471V134.343H966.488V133.325H967.506C967.603 131.25 967.292 130.123 965.471 128.237V124.167C967.117 123.476 967.788 122.708 968.523 120.605V114.5H967.506V112.974H968.523V111.447Z" fill="black" stroke="black" stroke-width="0.305273"/>
<path d="M982.77 111.447C982.537 109.892 981.905 108.86 978.699 106.359H989.893C986.687 108.86 986.055 109.892 985.822 111.447V112.974H986.84V114.5H985.822V120.605C986.558 122.708 987.229 123.476 988.875 124.167V128.237C987.054 130.123 986.743 131.25 986.84 133.325H987.857V134.343H988.875V135.869H989.893V138.922H978.699V135.869H979.717V134.343H980.734V133.325H981.752C981.849 131.25 981.538 130.123 979.717 128.237V124.167C981.363 123.476 982.034 122.708 982.77 120.605V114.5H981.752V112.974H982.77V111.447Z" fill="black" stroke="black" stroke-width="0.305273"/>
<path d="M997.016 111.447C996.783 109.892 996.151 108.86 992.945 106.359H1004.14C1000.93 108.86 1000.3 109.892 1000.07 111.447V112.974H1001.09V114.5H1000.07V120.605C1000.8 122.708 1001.48 123.476 1003.12 124.167V128.237C1001.3 130.123 1000.99 131.25 1001.09 133.325H1002.1V134.343H1003.12V135.869H1004.14V138.922H992.945V135.869H993.963V134.343H994.98V133.325H995.998C996.095 131.25 995.784 130.123 993.963 128.237V124.167C995.609 123.476 996.28 122.708 997.016 120.605V114.5H995.998V112.974H997.016V111.447Z" fill="black" stroke="black" stroke-width="0.305273"/>
<path d="M1011.26 111.447C1011.03 109.892 1010.4 108.86 1007.19 106.359H1018.38C1015.18 108.86 1014.55 109.892 1014.31 111.447V112.974H1015.33V114.5H1014.31V120.605C1015.05 122.708 1015.72 123.476 1017.37 124.167V128.237C1015.55 130.123 1015.23 131.25 1015.33 133.325H1016.35V134.343H1017.37V135.869H1018.38V138.922H1007.19V135.869H1008.21V134.343H1009.23V133.325H1010.24C1010.34 131.25 1010.03 130.123 1008.21 128.237V124.167C1009.85 123.476 1010.53 122.708 1011.26 120.605V114.5H1010.24V112.974H1011.26V111.447Z" fill="black" stroke="black" stroke-width="0.305273"/>
<path d="M1025.51 111.447C1025.28 109.892 1024.64 108.86 1021.44 106.359H1032.63C1029.43 108.86 1028.79 109.892 1028.56 111.447V112.974H1029.58V114.5H1028.56V120.605C1029.3 122.708 1029.97 123.476 1031.61 124.167V128.237C1029.79 130.123 1029.48 131.25 1029.58 133.325H1030.6V134.343H1031.61V135.869H1032.63V138.922H1021.44V135.869H1022.46V134.343H1023.47V133.325H1024.49C1024.59 131.25 1024.28 130.123 1022.46 128.237V124.167C1024.1 123.476 1024.77 122.708 1025.51 120.605V114.5H1024.49V112.974H1025.51V111.447Z" fill="black" stroke="black" stroke-width="0.305273"/>
<path d="M1039.75 111.447C1039.52 109.892 1038.89 108.86 1035.68 106.359H1046.88C1043.67 108.86 1043.04 109.892 1042.81 111.447V112.974H1043.82V114.5H1042.81V120.605C1043.54 122.708 1044.21 123.476 1045.86 124.167V128.237C1044.04 130.123 1043.73 131.25 1043.82 133.325H1044.84V134.343H1045.86V135.869H1046.88V138.922H1035.68V135.869H1036.7V134.343H1037.72V133.325H1038.74C1038.83 131.25 1038.52 130.123 1036.7 128.237V124.167C1038.35 123.476 1039.02 122.708 1039.75 120.605V114.5H1038.74V112.974H1039.75V111.447Z" fill="black" stroke="black" stroke-width="0.305273"/>
<path d="M1054 111.447C1053.77 109.892 1053.14 108.86 1049.93 106.359H1061.12C1057.92 108.86 1057.29 109.892 1057.05 111.447V112.974H1058.07V114.5H1057.05V120.605C1057.79 122.708 1058.46 123.476 1060.11 124.167V128.237C1058.28 130.123 1057.97 131.25 1058.07 133.325H1059.09V134.343H1060.11V135.869H1061.12V138.922H1049.93V135.869H1050.95V134.343H1051.96V133.325H1052.98C1053.08 131.25 1052.77 130.123 1050.95 128.237V124.167C1052.59 123.476 1053.26 122.708 1054 120.605V114.5H1052.98V112.974H1054V111.447Z" fill="black" stroke="black" stroke-width="0.305273"/>
<path d="M1116.07 111.447C1115.84 109.892 1115.21 108.86 1112 106.359H1123.2C1119.99 108.86 1119.36 109.892 1119.12 111.447V112.974H1120.14V114.5H1119.12V120.605C1119.86 122.708 1120.53 123.476 1122.18 124.167V128.237C1120.36 130.123 1120.05 131.25 1120.14 133.325H1121.16V134.343H1122.18V135.869H1123.2V138.922H1112V135.869H1113.02V134.343H1114.04V133.325H1115.05C1115.15 131.25 1114.84 130.123 1113.02 128.237V124.167C1114.67 123.476 1115.34 122.708 1116.07 120.605V114.5H1115.05V112.974H1116.07V111.447Z" fill="black" stroke="black" stroke-width="0.305273"/>
<path d="M1265.66 111.447C1265.42 109.892 1264.79 108.86 1261.59 106.359H1272.78C1269.57 108.86 1268.94 109.892 1268.71 111.447V112.974H1269.73V114.5H1268.71V120.605C1269.44 122.708 1270.12 123.476 1271.76 124.167V128.237C1269.94 130.123 1269.63 131.25 1269.73 133.325H1270.74V134.343H1271.76V135.869H1272.78V138.922H1261.59V135.869H1262.6V134.343H1263.62V133.325H1264.64C1264.74 131.25 1264.42 130.123 1262.6 128.237V124.167C1264.25 123.476 1264.92 122.708 1265.66 120.605V114.5H1264.64V112.974H1265.66V111.447Z" fill="black" stroke="black" stroke-width="0.305273"/>
<path d="M1279.9 111.447C1279.67 109.892 1279.04 108.86 1275.83 106.359H1287.03C1283.82 108.86 1283.19 109.892 1282.96 111.447V112.974H1283.97V114.5H1282.96V120.605C1283.69 122.708 1284.36 123.476 1286.01 124.167V128.237C1284.19 130.123 1283.88 131.25 1283.97 133.325H1284.99V134.343H1286.01V135.869H1287.03V138.922H1275.83V135.869H1276.85V134.343H1277.87V133.325H1278.88C1278.98 131.25 1278.67 130.123 1276.85 128.237V124.167C1278.5 123.476 1279.17 122.708 1279.9 120.605V114.5H1278.88V112.974H1279.9V111.447Z" fill="black" stroke="black" stroke-width="0.305273"/>
<path d="M1294.15 111.447C1293.92 109.892 1293.28 108.86 1290.08 106.359H1301.27C1298.07 108.86 1297.43 109.892 1297.2 111.447V112.974H1298.22V114.5H1297.2V120.605C1297.94 122.708 1298.61 123.476 1300.25 124.167V128.237C1298.43 130.123 1298.12 131.25 1298.22 133.325H1299.24V134.343H1300.25V135.869H1301.27V138.922H1290.08V135.869H1291.1V134.343H1292.11V133.325H1293.13C1293.23 131.25 1292.92 130.123 1291.1 128.237V124.167C1292.74 123.476 1293.41 122.708 1294.15 120.605V114.5H1293.13V112.974H1294.15V111.447Z" fill="black" stroke="black" stroke-width="0.305273"/>
<path d="M1308.39 111.447C1308.16 109.892 1307.53 108.86 1304.32 106.359H1315.52C1312.31 108.86 1311.68 109.892 1311.45 111.447V112.974H1312.46V114.5H1311.45V120.605C1312.18 122.708 1312.85 123.476 1314.5 124.167V128.237C1312.68 130.123 1312.37 131.25 1312.46 133.325H1313.48V134.343H1314.5V135.869H1315.52V138.922H1304.32V135.869H1305.34V134.343H1306.36V133.325H1307.38C1307.47 131.25 1307.16 130.123 1305.34 128.237V124.167C1306.99 123.476 1307.66 122.708 1308.39 120.605V114.5H1307.38V112.974H1308.39V111.447Z" fill="black" stroke="black" stroke-width="0.305273"/>
<path d="M1322.64 111.447C1322.41 109.892 1321.78 108.86 1318.57 106.359H1329.76C1326.56 108.86 1325.93 109.892 1325.69 111.447V112.974H1326.71V114.5H1325.69V120.605C1326.43 122.708 1327.1 123.476 1328.75 124.167V128.237C1326.92 130.123 1326.61 131.25 1326.71 133.325H1327.73V134.343H1328.75V135.869H1329.76V138.922H1318.57V135.869H1319.59V134.343H1320.61V133.325H1321.62C1321.72 131.25 1321.41 130.123 1319.59 128.237V124.167C1321.23 123.476 1321.91 122.708 1322.64 120.605V114.5H1321.62V112.974H1322.64V111.447Z" fill="black" stroke="black" stroke-width="0.305273"/>
<path d="M1336.89 111.447C1336.65 109.892 1336.02 108.86 1332.82 106.359H1344.01C1340.8 108.86 1340.17 109.892 1339.94 111.447V112.974H1340.96V114.5H1339.94V120.605C1340.67 122.708 1341.35 123.476 1342.99 124.167V128.237C1341.17 130.123 1340.86 131.25 1340.96 133.325H1341.97V134.343H1342.99V135.869H1344.01V138.922H1332.82V135.869H1333.83V134.343H1334.85V133.325H1335.87C1335.97 131.25 1335.66 130.123 1333.83 128.237V124.167C1335.48 123.476 1336.15 122.708 1336.89 120.605V114.5H1335.87V112.974H1336.89V111.447Z" fill="black" stroke="black" stroke-width="0.305273"/>
<path d="M1351.13 111.447C1350.9 109.892 1350.27 108.86 1347.06 106.359H1358.26C1355.05 108.86 1354.42 109.892 1354.19 111.447V112.974H1355.2V114.5H1354.19V120.605C1354.92 122.708 1355.59 123.476 1357.24 124.167V128.237C1355.42 130.123 1355.11 131.25 1355.2 133.325H1356.22V134.343H1357.24V135.869H1358.26V138.922H1347.06V135.869H1348.08V134.343H1349.1V133.325H1350.12C1350.21 131.25 1349.9 130.123 1348.08 128.237V124.167C1349.73 123.476 1350.4 122.708 1351.13 120.605V114.5H1350.12V112.974H1351.13V111.447Z" fill="black" stroke="black" stroke-width="0.305273"/>
<path d="M1365.38 111.447C1365.15 109.892 1364.51 108.86 1361.31 106.359H1372.5C1369.3 108.86 1368.66 109.892 1368.43 111.447V112.974H1369.45V114.5H1368.43V120.605C1369.17 122.708 1369.84 123.476 1371.48 124.167V128.237C1369.66 130.123 1369.35 131.25 1369.45 133.325H1370.47V134.343H1371.48V135.869H1372.5V138.922H1361.31V135.869H1362.33V134.343H1363.34V133.325H1364.36C1364.46 131.25 1364.15 130.123 1362.33 128.237V124.167C1363.97 123.476 1364.64 122.708 1365.38 120.605V114.5H1364.36V112.974H1365.38V111.447Z" fill="black" stroke="black" stroke-width="0.305273"/>
<path d="M1130.32 111.447C1130.09 109.892 1129.45 108.86 1126.25 106.359H1137.44C1134.24 108.86 1133.6 109.892 1133.37 111.447V112.974H1134.39V114.5H1133.37V120.605C1134.11 122.708 1134.78 123.476 1136.42 124.167V128.237C1134.6 130.123 1134.29 131.25 1134.39 133.325H1135.41V134.343H1136.42V135.869H1137.44V138.922H1126.25V135.869H1127.27V134.343H1128.28V133.325H1129.3C1129.4 131.25 1129.09 130.123 1127.27 128.237V124.167C1128.91 123.476 1129.58 122.708 1130.32 120.605V114.5H1129.3V112.974H1130.32V111.447Z" fill="black" stroke="black" stroke-width="0.305273"/>
<path d="M1144.56 111.447C1144.33 109.892 1143.7 108.86 1140.49 106.359H1151.69C1148.48 108.86 1147.85 109.892 1147.62 111.447V112.974H1148.63V114.5H1147.62V120.605C1148.35 122.708 1149.02 123.476 1150.67 124.167V128.237C1148.85 130.123 1148.54 131.25 1148.63 133.325H1149.65V134.343H1150.67V135.869H1151.69V138.922H1140.49V135.869H1141.51V134.343H1142.53V133.325H1143.55C1143.64 131.25 1143.33 130.123 1141.51 128.237V124.167C1143.16 123.476 1143.83 122.708 1144.56 120.605V114.5H1143.55V112.974H1144.56V111.447Z" fill="black" stroke="black" stroke-width="0.305273"/>
<path d="M1158.81 111.447C1158.58 109.892 1157.95 108.86 1154.74 106.359H1165.93C1162.73 108.86 1162.1 109.892 1161.86 111.447V112.974H1162.88V114.5H1161.86V120.605C1162.6 122.708 1163.27 123.476 1164.92 124.167V128.237C1163.09 130.123 1162.78 131.25 1162.88 133.325H1163.9V134.343H1164.92V135.869H1165.93V138.922H1154.74V135.869H1155.76V134.343H1156.78V133.325H1157.79C1157.89 131.25 1157.58 130.123 1155.76 128.237V124.167C1157.4 123.476 1158.08 122.708 1158.81 120.605V114.5H1157.79V112.974H1158.81V111.447Z" fill="black" stroke="black" stroke-width="0.305273"/>
<path d="M1173.06 111.447C1172.82 109.892 1172.19 108.86 1168.99 106.359H1180.18C1176.97 108.86 1176.34 109.892 1176.11 111.447V112.974H1177.13V114.5H1176.11V120.605C1176.84 122.708 1177.52 123.476 1179.16 124.167V128.237C1177.34 130.123 1177.03 131.25 1177.13 133.325H1178.14V134.343H1179.16V135.869H1180.18V138.922H1168.99V135.869H1170V134.343H1171.02V133.325H1172.04C1172.14 131.25 1171.83 130.123 1170 128.237V124.167C1171.65 123.476 1172.32 122.708 1173.06 120.605V114.5H1172.04V112.974H1173.06V111.447Z" fill="black" stroke="black" stroke-width="0.305273"/>
<path d="M1187.3 111.447C1187.07 109.892 1186.44 108.86 1183.23 106.359H1194.43C1191.22 108.86 1190.59 109.892 1190.36 111.447V112.974H1191.37V114.5H1190.36V120.605C1191.09 122.708 1191.76 123.476 1193.41 124.167V128.237C1191.59 130.123 1191.28 131.25 1191.37 133.325H1192.39V134.343H1193.41V135.869H1194.43V138.922H1183.23V135.869H1184.25V134.343H1185.27V133.325H1186.29C1186.38 131.25 1186.07 130.123 1184.25 128.237V124.167C1185.9 123.476 1186.57 122.708 1187.3 120.605V114.5H1186.29V112.974H1187.3V111.447Z" fill="black" stroke="black" stroke-width="0.305273"/>
<path d="M1200.53 111.447C1200.3 109.892 1199.67 108.86 1196.46 106.359H1207.65C1204.45 108.86 1203.82 109.892 1203.58 111.447V112.974H1204.6V114.5H1203.58V120.605C1204.32 122.708 1204.99 123.476 1206.64 124.167V128.237C1204.82 130.123 1204.5 131.25 1204.6 133.325H1205.62V134.343H1206.64V135.869H1207.65V138.922H1196.46V135.869H1197.48V134.343H1198.5V133.325H1199.51C1199.61 131.25 1199.3 130.123 1197.48 128.237V124.167C1199.12 123.476 1199.8 122.708 1200.53 120.605V114.5H1199.51V112.974H1200.53V111.447Z" fill="black" stroke="black" stroke-width="0.305273"/>
<path d="M286.746 111.447C286.514 109.892 285.881 108.86 282.676 106.359H293.869C290.663 108.86 290.031 109.892 289.799 111.447V112.974H290.816V114.5H289.799V120.605C290.534 122.708 291.206 123.476 292.852 124.167V128.237C291.03 130.123 290.719 131.25 290.816 133.325H291.834V134.343H292.852V135.869H293.869V138.922H282.676V135.869H283.693V134.343H284.711V133.325H285.729C285.826 131.25 285.515 130.123 283.693 128.237V124.167C285.339 123.476 286.011 122.708 286.746 120.605V114.5H285.729V112.974H286.746V111.447Z" fill="black" stroke="black" stroke-width="0.305273"/>
<path d="M300.992 111.447C300.76 109.892 300.128 108.86 296.922 106.359H308.115C304.91 108.86 304.277 109.892 304.045 111.447V112.974H305.062V114.5H304.045V120.605C304.78 122.708 305.452 123.476 307.098 124.167V128.237C305.276 130.123 304.965 131.25 305.062 133.325H306.08V134.343H307.098V135.869H308.115V138.922H296.922V135.869H297.939V134.343H298.957V133.325H299.975C300.072 131.25 299.761 130.123 297.939 128.237V124.167C299.585 123.476 300.257 122.708 300.992 120.605V114.5H299.975V112.974H300.992V111.447Z" fill="black" stroke="black" stroke-width="0.305273"/>
<path d="M315.238 111.447C315.006 109.892 314.374 108.86 311.168 106.359H322.361C319.156 108.86 318.523 109.892 318.291 111.447V112.974H319.309V114.5H318.291V120.605C319.026 122.708 319.698 123.476 321.344 124.167V128.237C319.522 130.123 319.211 131.25 319.309 133.325H320.326V134.343H321.344V135.869H322.361V138.922H311.168V135.869H312.186V134.343H313.203V133.325H314.221C314.318 131.25 314.007 130.123 312.186 128.237V124.167C313.831 123.476 314.503 122.708 315.238 120.605V114.5H314.221V112.974H315.238V111.447Z" fill="black" stroke="black" stroke-width="0.305273"/>
<path d="M329.484 111.447C329.252 109.892 328.62 108.86 325.414 106.359H336.607C333.402 108.86 332.769 109.892 332.537 111.447V112.974H333.555V114.5H332.537V120.605C333.272 122.708 333.944 123.476 335.59 124.167V128.237C333.769 130.123 333.458 131.25 333.555 133.325H334.572V134.343H335.59V135.869H336.607V138.922H325.414V135.869H326.432V134.343H327.449V133.325H328.467C328.564 131.25 328.253 130.123 326.432 128.237V124.167C328.077 123.476 328.749 122.708 329.484 120.605V114.5H328.467V112.974H329.484V111.447Z" fill="black" stroke="black" stroke-width="0.305273"/>
<path d="M343.73 111.447C343.498 109.892 342.866 108.86 339.66 106.359H350.854C347.648 108.86 347.016 109.892 346.783 111.447V112.974H347.801V114.5H346.783V120.605C347.519 122.708 348.19 123.476 349.836 124.167V128.237C348.015 130.123 347.704 131.25 347.801 133.325H348.818V134.343H349.836V135.869H350.854V138.922H339.66V135.869H340.678V134.343H341.695V133.325H342.713C342.81 131.25 342.499 130.123 340.678 128.237V124.167C342.324 123.476 342.995 122.708 343.73 120.605V114.5H342.713V112.974H343.73V111.447Z" fill="black" stroke="black" stroke-width="0.305273"/>
<path d="M357.977 111.447C357.744 109.892 357.112 108.86 353.906 106.359H365.1C361.894 108.86 361.262 109.892 361.029 111.447V112.974H362.047V114.5H361.029V120.605C361.765 122.708 362.436 123.476 364.082 124.167V128.237C362.261 130.123 361.95 131.25 362.047 133.325H363.064V134.343H364.082V135.869H365.1V138.922H353.906V135.869H354.924V134.343H355.941V133.325H356.959C357.056 131.25 356.745 130.123 354.924 128.237V124.167C356.57 123.476 357.241 122.708 357.977 120.605V114.5H356.959V112.974H357.977V111.447Z" fill="black" stroke="black" stroke-width="0.305273"/>
<path d="M372.223 111.447C371.99 109.892 371.358 108.86 368.152 106.359H379.346C376.14 108.86 375.508 109.892 375.275 111.447V112.974H376.293V114.5H375.275V120.605C376.011 122.708 376.682 123.476 378.328 124.167V128.237C376.507 130.123 376.196 131.25 376.293 133.325H377.311V134.343H378.328V135.869H379.346V138.922H368.152V135.869H369.17V134.343H370.188V133.325H371.205C371.302 131.25 370.991 130.123 369.17 128.237V124.167C370.816 123.476 371.487 122.708 372.223 120.605V114.5H371.205V112.974H372.223V111.447Z" fill="black" stroke="black" stroke-width="0.305273"/>
<path d="M81.7217 111.447C81.954 109.892 82.5863 108.86 85.792 106.359H79.6865V138.922H85.792V135.869H84.7744V134.343H83.7568V133.325H82.7393C82.6421 131.25 82.9531 130.123 84.7744 128.237V124.167C83.1286 123.476 82.457 122.708 81.7217 120.605V114.5H82.7393V112.974H81.7217V111.447Z" fill="black" stroke="black" stroke-width="0.305273"/>
<path d="M259.307 111.447C259.539 109.892 260.171 108.86 263.377 106.359H257.271V138.922H263.377V135.869H262.359V134.343H261.342V133.325H260.324C260.227 131.25 260.538 130.123 262.359 128.237V124.167C260.714 123.476 260.042 122.708 259.307 120.605V114.5H260.324V112.974H259.307V111.447Z" fill="black" stroke="black" stroke-width="0.305273"/>
<path d="M425.172 111.447C425.404 109.892 426.037 108.86 429.242 106.359H423.137V138.922H429.242V135.869H428.225V134.343H427.207V133.325H426.189C426.092 131.25 426.403 130.123 428.225 128.237V124.167C426.579 123.476 425.907 122.708 425.172 120.605V114.5H426.189V112.974H425.172V111.447Z" fill="black" stroke="black" stroke-width="0.305273"/>
<path d="M956.33 111.447C956.562 109.892 957.195 108.86 960.4 106.359H954.295V138.922H960.4V135.869H959.383V134.343H958.365V133.325H957.348C957.251 131.25 957.561 130.123 959.383 128.237V124.167C957.737 123.476 957.065 122.708 956.33 120.605V114.5H957.348V112.974H956.33V111.447Z" fill="black" stroke="black" stroke-width="0.305273"/>
<path d="M1105.9 111.447C1106.13 109.892 1106.76 108.86 1109.97 106.359H1103.86V138.922H1109.97V135.869H1108.95V134.343H1107.93V133.325H1106.91C1106.82 131.25 1107.13 130.123 1108.95 128.237V124.167C1107.3 123.476 1106.63 122.708 1105.9 120.605V114.5H1106.91V112.974H1105.9V111.447Z" fill="black" stroke="black" stroke-width="0.305273"/>
<path d="M1254.46 111.447C1254.7 109.892 1255.33 108.86 1258.53 106.359H1252.43V138.922H1258.53V135.869H1257.52V134.343H1256.5V133.325H1255.48C1255.38 131.25 1255.69 130.123 1257.52 128.237V124.167C1255.87 123.476 1255.2 122.708 1254.46 120.605V114.5H1255.48V112.974H1254.46V111.447Z" fill="black" stroke="black" stroke-width="0.305273"/>
<path d="M107.652 111.447C107.42 109.892 106.788 108.86 103.582 106.359H114.775C111.57 108.86 110.937 109.892 110.705 111.447V112.974H111.723V114.5H110.705V120.605C111.44 122.708 112.112 123.476 113.758 124.167V128.237C111.936 130.123 111.626 131.25 111.723 133.325H112.74V134.343H113.758V135.869H114.775V138.922H103.582V135.869H104.6V134.343H105.617V133.325H106.635C106.732 131.25 106.421 130.123 104.6 128.237V124.167C106.245 123.476 106.917 122.708 107.652 120.605V114.5H106.635V112.974H107.652V111.447Z" fill="black" stroke="black" stroke-width="0.305273"/>
<path d="M121.898 111.447C121.666 109.892 121.034 108.86 117.828 106.359H129.021C125.816 108.86 125.183 109.892 124.951 111.447V112.974H125.969V114.5H124.951V120.605C125.687 122.708 126.358 123.476 128.004 124.167V128.237C126.183 130.123 125.872 131.25 125.969 133.325H126.986V134.343H128.004V135.869H129.021V138.922H117.828V135.869H118.846V134.343H119.863V133.325H120.881C120.978 131.25 120.667 130.123 118.846 128.237V124.167C120.492 123.476 121.163 122.708 121.898 120.605V114.5H120.881V112.974H121.898V111.447Z" fill="black" stroke="black" stroke-width="0.305273"/>
<path d="M136.145 111.447C135.912 109.892 135.28 108.86 132.074 106.359H143.268C140.062 108.86 139.43 109.892 139.197 111.447V112.974H140.215V114.5H139.197V120.605C139.933 122.708 140.604 123.476 142.25 124.167V128.237C140.429 130.123 140.118 131.25 140.215 133.325H141.232V134.343H142.25V135.869H143.268V138.922H132.074V135.869H133.092V134.343H134.109V133.325H135.127C135.224 131.25 134.913 130.123 133.092 128.237V124.167C134.738 123.476 135.409 122.708 136.145 120.605V114.5H135.127V112.974H136.145V111.447Z" fill="black" stroke="black" stroke-width="0.305273"/>
<path d="M150.391 111.447C150.158 109.892 149.526 108.86 146.32 106.359H157.514C154.308 108.86 153.676 109.892 153.443 111.447V112.974H154.461V114.5H153.443V120.605C154.179 122.708 154.85 123.476 156.496 124.167V128.237C154.675 130.123 154.364 131.25 154.461 133.325H155.479V134.343H156.496V135.869H157.514V138.922H146.32V135.869H147.338V134.343H148.355V133.325H149.373C149.47 131.25 149.159 130.123 147.338 128.237V124.167C148.984 123.476 149.655 122.708 150.391 120.605V114.5H149.373V112.974H150.391V111.447Z" fill="black" stroke="black" stroke-width="0.305273"/>
<path d="M164.637 111.447C164.404 109.892 163.772 108.86 160.566 106.359H171.76C168.554 108.86 167.922 109.892 167.689 111.447V112.974H168.707V114.5H167.689V120.605C168.425 122.708 169.096 123.476 170.742 124.167V128.237C168.921 130.123 168.61 131.25 168.707 133.325H169.725V134.343H170.742V135.869H171.76V138.922H160.566V135.869H161.584V134.343H162.602V133.325H163.619C163.716 131.25 163.405 130.123 161.584 128.237V124.167C163.23 123.476 163.901 122.708 164.637 120.605V114.5H163.619V112.974H164.637V111.447Z" fill="black" stroke="black" stroke-width="0.305273"/>
<path d="M178.883 111.447C178.65 109.892 178.018 108.86 174.812 106.359H186.006C182.8 108.86 182.168 109.892 181.936 111.447V112.974H182.953V114.5H181.936V120.605C182.671 122.708 183.342 123.476 184.988 124.167V128.237C183.167 130.123 182.856 131.25 182.953 133.325H183.971V134.343H184.988V135.869H186.006V138.922H174.812V135.869H175.83V134.343H176.848V133.325H177.865C177.962 131.25 177.651 130.123 175.83 128.237V124.167C177.476 123.476 178.147 122.708 178.883 120.605V114.5H177.865V112.974H178.883V111.447Z" fill="black" stroke="black" stroke-width="0.305273"/>
<path d="M193.129 111.447C192.897 109.892 192.264 108.86 189.059 106.359H200.252C197.046 108.86 196.414 109.892 196.182 111.447V112.974H197.199V114.5H196.182V120.605C196.917 122.708 197.589 123.476 199.234 124.167V128.237C197.413 130.123 197.102 131.25 197.199 133.325H198.217V134.343H199.234V135.869H200.252V138.922H189.059V135.869H190.076V134.343H191.094V133.325H192.111C192.208 131.25 191.897 130.123 190.076 128.237V124.167C191.722 123.476 192.394 122.708 193.129 120.605V114.5H192.111V112.974H193.129V111.447Z" fill="black" stroke="black" stroke-width="0.305273"/>
<path d="M207.375 111.447C207.143 109.892 206.51 108.86 203.305 106.359H214.498C211.292 108.86 210.66 109.892 210.428 111.447V112.974H211.445V114.5H210.428V120.605C211.163 122.708 211.835 123.476 213.48 124.167V128.237C211.659 130.123 211.348 131.25 211.445 133.325H212.463V134.343H213.48V135.869H214.498V138.922H203.305V135.869H204.322V134.343H205.34V133.325H206.357C206.455 131.25 206.144 130.123 204.322 128.237V124.167C205.968 123.476 206.64 122.708 207.375 120.605V114.5H206.357V112.974H207.375V111.447Z" fill="black" stroke="black" stroke-width="0.305273"/>
<path d="M221.621 111.447C221.389 109.892 220.756 108.86 217.551 106.359H223.656V138.922H217.551V135.869H218.568V134.343H219.586V133.325H220.604C220.701 131.25 220.39 130.123 218.568 128.237V124.167C220.214 123.476 220.886 122.708 221.621 120.605V114.5H220.604V112.974H221.621V111.447Z" fill="black" stroke="black" stroke-width="0.305273"/>
<path d="M385.451 111.447C385.219 109.892 384.587 108.86 381.381 106.359H387.486V138.922H381.381V135.869H382.398V134.343H383.416V133.325H384.434C384.531 131.25 384.22 130.123 382.398 128.237V124.167C384.044 123.476 384.716 122.708 385.451 120.605V114.5H384.434V112.974H385.451V111.447Z" fill="black" stroke="black" stroke-width="0.305273"/>
<path d="M554.369 111.447C554.137 109.892 553.504 108.86 550.299 106.359H556.404V138.922H550.299V135.869H551.316V134.343H552.334V133.325H553.352C553.449 131.25 553.138 130.123 551.316 128.237V124.167C552.962 123.476 553.634 122.708 554.369 120.605V114.5H553.352V112.974H554.369V111.447Z" fill="black" stroke="black" stroke-width="0.305273"/>
<path d="M1068.25 111.447C1068.01 109.892 1067.38 108.86 1064.18 106.359H1070.28V138.922H1064.18V135.869H1065.19V134.343H1066.21V133.325H1067.23C1067.33 131.25 1067.01 130.123 1065.19 128.237V124.167C1066.84 123.476 1067.51 122.708 1068.25 120.605V114.5H1067.23V112.974H1068.25V111.447Z" fill="black" stroke="black" stroke-width="0.305273"/>
<path d="M1213.76 111.447C1213.53 109.892 1212.9 108.86 1209.69 106.359H1215.79V138.922H1209.69V135.869H1210.71V134.343H1211.72V133.325H1212.74C1212.84 131.25 1212.53 130.123 1210.71 128.237V124.167C1212.35 123.476 1213.02 122.708 1213.76 120.605V114.5H1212.74V112.974H1213.76V111.447Z" fill="black" stroke="black" stroke-width="0.305273"/>
<path d="M1378.61 111.447C1378.38 109.892 1377.74 108.86 1374.54 106.359H1380.64V138.922H1374.54V135.869H1375.55V134.343H1376.57V133.325H1377.59C1377.69 131.25 1377.38 130.123 1375.55 128.237V124.167C1377.2 123.476 1377.87 122.708 1378.61 120.605V114.5H1377.59V112.974H1378.61V111.447Z" fill="black" stroke="black" stroke-width="0.305273"/>
<path d="M1409.5 158.859H37.4746V166.359H1409.5V158.859Z" fill="black" stroke="black"/>
<path d="M37.4746 170.359H1409" stroke="black"/>
<path d="M44 561V106H37V561H44Z" fill="black" stroke="black"/>
<path d="M44 556H1415.5V562H44V556Z" fill="black" stroke="black"/>
<path d="M1409 549V146H1415.5V556H1409V549Z" fill="black" stroke="black"/>
<path d="M721.287 546.462H780.815V555.62L721.287 556.129V546.462Z" fill="black" stroke="black" stroke-width="1.01758"/>
<path d="M714.164 522.04V530.689H658.197V522.04H714.164Z" fill="black"/>
<path d="M788.447 522.04V530.689H844.414V522.04H788.447Z" fill="black"/>
<path d="M721.287 464.547H780.815V471.67H721.287V464.547Z" fill="black"/>
<path d="M714.164 522.04V530.689H658.197V522.04H714.164Z" stroke="black" stroke-width="1.01758"/>
<path d="M788.447 522.04V530.689H844.414V522.04H788.447Z" stroke="black" stroke-width="1.01758"/>
<path d="M721.287 464.547H780.815V471.67H721.287V464.547Z" stroke="black" stroke-width="1.01758"/>
<path d="M721.796 413.159H780.815V419.265L721.287 418.756V413.159H721.796Z" fill="black" stroke="black" stroke-width="1.01758"/>
<path d="M645.986 413.668C717.217 350.578 814.904 372.965 856.625 413.668" stroke="black" stroke-width="5.08789"/>
<path d="M645.986 418.756V531.198" stroke="black" stroke-width="5.08789"/>
<path d="M855.607 418.756V531.368" stroke="black" stroke-width="5.08789"/>
<path d="M722.813 320.051V310.893H779.289V320.051H722.813Z" fill="black" stroke="black" stroke-width="1.01758"/>
<path d="M786.412 320.051V310.893H828.133V320.051H786.412Z" fill="black" stroke="black" stroke-width="1.01758"/>
<path d="M715.182 320.051V310.893H673.461V320.051H715.182Z" fill="black" stroke="black" stroke-width="1.01758"/>
<path fill-rule="evenodd" clip-rule="evenodd" d="M837.291 198.959V329.209H664.303V198.959H837.291Z" stroke="black" stroke-width="5.08789"/>
<path d="M454.682 322.086V312.928H512.684V322.086H454.682Z" fill="black" stroke="black" stroke-width="1.01758"/>
<path d="M1278.92 322.086V312.928H1336.92V322.086H1278.92Z" fill="black" stroke="black" stroke-width="1.01758"/>
<path d="M1132.39 322.086V312.928H1190.39V322.086H1132.39Z" fill="black" stroke="black" stroke-width="1.01758"/>
<path d="M289.834 322.086V312.928H347.836V322.086H289.834Z" fill="black" stroke="black" stroke-width="1.01758"/>
<path d="M124.986 322.086V312.928H182.988V322.086H124.986Z" fill="black" stroke="black" stroke-width="1.01758"/>
<path d="M985.857 322.086V312.928H1043.86V322.086H985.857Z" fill="black" stroke="black" stroke-width="1.01758"/>
<path d="M519.807 203.029V330.227H447.559V203.029H519.807Z" stroke="black" stroke-width="5.08789"/>
<path d="M1050.98 203.029V330.227H978.734V203.029H1050.98Z" stroke="black" stroke-width="5.08789"/>
<path d="M1197.51 203.029V330.227H1125.27V203.029H1197.51Z" stroke="black" stroke-width="5.08789"/>
<path d="M1344.04 203.029V330.227H1271.8V203.029H1344.04Z" stroke="black" stroke-width="5.08789"/>
<path d="M354.959 203.029V330.227H282.711V203.029H354.959Z" stroke="black" stroke-width="5.08789"/>
<path d="M190.111 203.029V330.227H117.863V203.029H190.111Z" stroke="black" stroke-width="5.08789"/>
<path d="M122.442 553.076V543.918H177.9V553.076H122.442Z" fill="black" stroke="black" stroke-width="1.01758"/>
<path d="M290.852 553.076V543.918H346.31V553.076H290.852Z" fill="black" stroke="black" stroke-width="1.01758"/>
<path d="M455.699 553.076V543.918H511.157V553.076H455.699Z" fill="black" stroke="black" stroke-width="1.01758"/>
<path d="M987.893 553.076V543.918H1043.35V553.076H987.893Z" fill="black" stroke="black" stroke-width="1.01758"/>
<path d="M1134.42 553.076V543.918H1189.88V553.076H1134.42Z" fill="black" stroke="black" stroke-width="1.01758"/>
<path d="M1280.96 553.076V543.918H1336.41V553.076H1280.96Z" fill="black" stroke="black" stroke-width="1.01758"/>
<path d="M112.775 419.268C125.495 405.531 173.321 404.513 188.585 419.268M112.775 431.479V553.08M188.585 431.479V553.08" stroke="black" stroke-width="5.08789"/>
<path d="M280.676 419.268C293.396 405.531 341.222 404.513 356.485 419.268M280.676 431.479V553.08M356.485 431.479V553.08" stroke="black" stroke-width="5.08789"/>
<path d="M445.523 419.268C458.243 405.531 506.069 404.513 521.333 419.268M445.523 431.479V553.08M521.333 431.479V553.08" stroke="black" stroke-width="5.08789"/>
<path d="M977.717 419.268C990.437 405.531 1038.26 404.513 1053.53 419.268M977.717 431.479V553.08M1053.53 431.479V553.08" stroke="black" stroke-width="5.08789"/>
<path d="M1124.25 419.268C1136.97 405.531 1184.79 404.513 1200.06 419.268M1124.25 431.479V553.08M1200.06 431.479V553.08" stroke="black" stroke-width="5.08789"/>
<path d="M1270.78 419.268C1283.5 405.531 1331.33 404.513 1346.59 419.268M1270.78 431.479V553.08M1346.59 431.479V553.08" stroke="black" stroke-width="5.08789"/>
<path d="M73.0898 347.525H1378.64M73.0898 386.193H576.791M916.5 386.193H1378.64" stroke="black" stroke-width="2.03516"/>
<path d="M83.3535 355.666H312.309H541.264L526 370.93H98.6172L83.3535 355.666Z" fill="black" stroke="black" stroke-width="4.07031"/>
<path d="M913 356H1141.96H1370.91L1355.65 371.264H928.264L913 356Z" fill="black" stroke="black" stroke-width="4.07031"/>
<path d="M1393 183H56L59.0548 190H1389.95L1393 183Z" fill="black" stroke="black" stroke-width="1.01758"/>
<path fill-rule="evenodd" clip-rule="evenodd" d="M73.3422 203.029H88.8583C86.3608 209.966 85.4506 213.253 84.7207 218.293V325.139C85.6811 330.813 86.5822 334.174 88.8583 340.402H73.3422C75.4331 334.794 76.3215 331.439 77.4798 325.139V218.293C76.2442 211.855 75.3283 208.494 73.3422 203.029ZM79.0315 264.084V218.293H80.0659V264.084H79.0315ZM82.1347 218.293H83.1691V264.084H82.1347V218.293ZM79.0315 325.139V279.348H80.0659V325.139H79.0315ZM82.1347 279.348H83.1691V325.139H82.1347V279.348Z" fill="black" stroke="black" stroke-width="0.203516"/>
<path fill-rule="evenodd" clip-rule="evenodd" d="M73.3423 401.457H88.8583C86.3608 409.113 85.4506 412.741 84.7207 418.304V536.23C85.6811 542.493 86.5822 546.202 88.8583 553.076H73.3423C75.4332 546.886 76.3216 543.184 77.4799 536.23V418.304C76.2443 411.198 75.3285 407.488 73.3423 401.457ZM79.0315 468.843V418.304H80.0659V468.843H79.0315ZM82.1347 418.304H83.1691V468.843H82.1347V418.304ZM79.0315 536.23V485.69H80.0659V536.23H79.0315ZM82.1347 485.69H83.1691V536.23H82.1347V485.69Z" fill="black" stroke="black" stroke-width="0.203516"/>
<path fill-rule="evenodd" clip-rule="evenodd" d="M230.572 401.457H246.088C243.59 409.113 242.68 412.741 241.95 418.304V536.23C242.911 542.493 243.812 546.202 246.088 553.076H230.572C232.663 546.886 233.551 543.184 234.709 536.23V418.304C233.474 411.198 232.558 407.488 230.572 401.457ZM236.261 468.843V418.304H237.295V468.843H236.261ZM239.364 418.304H240.399V468.843H239.364V418.304ZM236.261 536.23V485.69H237.295V536.23H236.261ZM239.364 485.69H240.399V536.23H239.364V485.69Z" fill="black" stroke="black" stroke-width="0.203516"/>
<path fill-rule="evenodd" clip-rule="evenodd" d="M399.18 401.457H414.696C412.198 409.113 411.288 412.741 410.558 418.304V536.23C411.519 542.493 412.42 546.202 414.696 553.076H399.18C401.271 546.886 402.159 543.184 403.317 536.23V418.304C402.082 411.198 401.166 407.488 399.18 401.457ZM404.869 468.843V418.304H405.904V468.843H404.869ZM407.972 418.304H409.007V468.843H407.972V418.304ZM404.869 536.23V485.69H405.904V536.23H404.869ZM407.972 485.69H409.007V536.23H407.972V485.69Z" fill="black" stroke="black" stroke-width="0.203516"/>
<path fill-rule="evenodd" clip-rule="evenodd" d="M567.788 401.457H583.304C580.806 409.113 579.896 412.741 579.166 418.304V536.23C580.127 542.493 581.028 546.202 583.304 553.076H567.788C569.879 546.886 570.767 543.184 571.926 536.23V418.304C570.69 411.198 569.774 407.488 567.788 401.457ZM573.477 468.843V418.304H574.512V468.843H573.477ZM576.58 418.304H577.615V468.843H576.58V418.304ZM573.477 536.23V485.69H574.512V536.23H573.477ZM576.58 485.69H577.615V536.23H576.58V485.69Z" fill="black" stroke="black" stroke-width="0.203516"/>
<path fill-rule="evenodd" clip-rule="evenodd" d="M913.036 401.457H928.552C926.055 409.113 925.144 412.741 924.415 418.304V536.23C925.375 542.493 926.276 546.202 928.552 553.076H913.036C915.127 546.886 916.015 543.184 917.174 536.23V418.304C915.938 411.198 915.022 407.488 913.036 401.457ZM918.725 468.843V418.304H919.76V468.843H918.725ZM921.829 418.304H922.863V468.843H921.829V418.304ZM918.725 536.23V485.69H919.76V536.23H918.725ZM921.829 485.69H922.863V536.23H921.829V485.69Z" fill="black" stroke="black" stroke-width="0.203516"/>
<path fill-rule="evenodd" clip-rule="evenodd" d="M1082.4 401.457H1097.92C1095.42 409.113 1094.51 412.741 1093.78 418.304V536.23C1094.74 542.493 1095.64 546.202 1097.92 553.076H1082.4C1084.49 546.886 1085.38 543.184 1086.54 536.23V418.304C1085.31 411.198 1084.39 407.488 1082.4 401.457ZM1088.09 468.843V418.304H1089.13V468.843H1088.09ZM1091.2 418.304H1092.23V468.843H1091.2V418.304ZM1088.09 536.23V485.69H1089.13V536.23H1088.09ZM1091.2 485.69H1092.23V536.23H1091.2V485.69Z" fill="black" stroke="black" stroke-width="0.203516"/>
<path fill-rule="evenodd" clip-rule="evenodd" d="M1230.36 401.457H1245.87C1243.38 409.113 1242.47 412.741 1241.74 418.304V536.23C1242.7 542.493 1243.6 546.202 1245.87 553.076H1230.36C1232.45 546.886 1233.34 543.184 1234.5 536.23V418.304C1233.26 411.198 1232.34 407.488 1230.36 401.457ZM1236.05 468.843V418.304H1237.08V468.843H1236.05ZM1239.15 418.304H1240.18V468.843H1239.15V418.304ZM1236.05 536.23V485.69H1237.08V536.23H1236.05ZM1239.15 485.69H1240.18V536.23H1239.15V485.69Z" fill="black" stroke="black" stroke-width="0.203516"/>
<path fill-rule="evenodd" clip-rule="evenodd" d="M1366 401H1381.52C1379.02 408.656 1378.11 412.284 1377.38 417.847V535.773C1378.34 542.036 1379.24 545.745 1381.52 552.619H1366C1368.09 546.429 1368.98 542.727 1370.14 535.773V417.847C1368.9 410.741 1367.99 407.031 1366 401ZM1371.69 468.386V417.847H1372.72V468.386H1371.69ZM1374.79 417.847H1375.83V468.386H1374.79V417.847ZM1371.69 535.773V485.233H1372.72V535.773H1371.69ZM1374.79 485.233H1375.83V535.773H1374.79V485.233Z" fill="black" stroke="black" stroke-width="0.203516"/>
<path fill-rule="evenodd" clip-rule="evenodd" d="M230.572 203.029H246.088C243.59 209.966 242.68 213.253 241.95 218.293V325.139C242.911 330.813 243.812 334.174 246.088 340.402H230.572C232.663 334.794 233.551 331.439 234.709 325.139V218.293C233.474 211.855 232.558 208.494 230.572 203.029ZM236.261 264.084V218.293H237.296V264.084H236.261ZM239.364 218.293H240.399V264.084H239.364V218.293ZM236.261 325.139V279.348H237.296V325.139H236.261ZM239.364 279.348H240.399V325.139H239.364V279.348Z" fill="black" stroke="black" stroke-width="0.203516"/>
<path fill-rule="evenodd" clip-rule="evenodd" d="M399.18 203.029H414.696C412.199 209.966 411.288 213.253 410.558 218.293V325.139C411.519 330.813 412.42 334.174 414.696 340.402H399.18C401.271 334.794 402.159 331.439 403.318 325.139V218.293C402.082 211.855 401.166 208.494 399.18 203.029ZM404.869 264.084V218.293H405.904V264.084H404.869ZM407.972 218.293H409.007V264.084H407.972V218.293ZM404.869 325.139V279.348H405.904V325.139H404.869ZM407.972 279.348H409.007V325.139H407.972V279.348Z" fill="black" stroke="black" stroke-width="0.203516"/>
<path fill-rule="evenodd" clip-rule="evenodd" d="M567.788 203.029H583.304C580.807 209.966 579.896 213.253 579.166 218.293V325.139C580.127 330.813 581.028 334.174 583.304 340.402H567.788C569.879 334.794 570.767 331.439 571.926 325.139V218.293C570.69 211.855 569.774 208.494 567.788 203.029ZM573.477 264.084V218.293H574.512V264.084H573.477ZM576.58 218.293H577.615V264.084H576.58V218.293ZM573.477 325.139V279.348H574.512V325.139H573.477ZM576.58 279.348H577.615V325.139H576.58V279.348Z" fill="black" stroke="black" stroke-width="0.203516"/>
<path fill-rule="evenodd" clip-rule="evenodd" d="M913 202H928.516C926.019 208.937 925.109 212.224 924.379 217.264V324.109C925.339 329.784 926.24 333.145 928.516 339.373H913C915.091 333.765 915.979 330.41 917.138 324.109V217.264C915.902 210.826 914.986 207.465 913 202ZM918.689 263.055V217.264H919.724V263.055H918.689ZM921.793 217.264H922.827V263.055H921.793V217.264ZM918.689 324.109V278.318H919.724V324.109H918.689ZM921.793 278.318H922.827V324.109H921.793V278.318Z" fill="black" stroke="black" stroke-width="0.203516"/>
<path fill-rule="evenodd" clip-rule="evenodd" d="M1082 202H1097.52C1095.02 208.937 1094.11 212.224 1093.38 217.264V324.109C1094.34 329.784 1095.24 333.145 1097.52 339.373H1082C1084.09 333.765 1084.98 330.41 1086.14 324.109V217.264C1084.9 210.826 1083.99 207.465 1082 202ZM1087.69 263.055V217.264H1088.72V263.055H1087.69ZM1090.79 217.264H1091.83V263.055H1090.79V217.264ZM1087.69 324.109V278.318H1088.72V324.109H1087.69ZM1090.79 278.318H1091.83V324.109H1090.79V278.318Z" fill="black" stroke="black" stroke-width="0.203516"/>
<path fill-rule="evenodd" clip-rule="evenodd" d="M1230 203H1245.52C1243.02 209.937 1242.11 213.224 1241.38 218.264V325.109C1242.34 330.784 1243.24 334.145 1245.52 340.373H1230C1232.09 334.765 1232.98 331.41 1234.14 325.109V218.264C1232.9 211.826 1231.99 208.465 1230 203ZM1235.69 264.055V218.264H1236.72V264.055H1235.69ZM1238.79 218.264H1239.83V264.055H1238.79V218.264ZM1235.69 325.109V279.318H1236.72V325.109H1235.69ZM1238.79 279.318H1239.83V325.109H1238.79V279.318Z" fill="black" stroke="black" stroke-width="0.203516"/>
<path fill-rule="evenodd" clip-rule="evenodd" d="M1365 203H1380.52C1378.02 209.937 1377.11 213.224 1376.38 218.264V325.109C1377.34 330.784 1378.24 334.145 1380.52 340.373H1365C1367.09 334.765 1367.98 331.41 1369.14 325.109V218.264C1367.9 211.826 1366.99 208.465 1365 203ZM1370.69 264.055V218.264H1371.72V264.055H1370.69ZM1373.79 218.264H1374.83V264.055H1373.79V218.264ZM1370.69 325.109V279.318H1371.72V325.109H1370.69ZM1373.79 279.318H1374.83V325.109H1373.79V279.318Z" fill="black" stroke="black" stroke-width="0.203516"/>
<path d="M57.8262 152.659H1393.91" stroke="black" stroke-width="2.03516"/>
<path d="M592.055 271.716H637.846" stroke="black" stroke-width="3.05273"/>
<path d="M859.678 271.207H905.469" stroke="black" stroke-width="3.05273"/>
<path d="M614.95 203.029V264.084" stroke="black" stroke-width="3.05273"/>
<path d="M614.441 279.348V340.402" stroke="black" stroke-width="3.05273"/>
<path d="M883.082 279.348V340.402" stroke="black" stroke-width="3.05273"/>
<path d="M883.082 203.029V264.084" stroke="black" stroke-width="3.05273"/>
<path d="M279.149 73.2881H629.705M232.85 89.0605H569.159M875.959 73.2881H1256.53M935.996 89.0605H1272.31" stroke="black" stroke-width="1.22109"/>
<path d="M57.8262 203.029V538.83M1393.4 203.029V538.83" stroke="black" stroke-width="2.03516"/>
<path d="M8.06543 671.184L12.5479 670.305L15.8877 683.4C17.4697 683.986 19.0811 684.455 20.7217 684.807C22.3623 685.129 24.0176 685.29 25.6875 685.29C27.416 685.29 29.0713 685.114 30.6533 684.763C32.2646 684.382 33.6709 683.737 34.8721 682.829C36.1025 681.921 37.084 680.72 37.8164 679.226C38.5488 677.731 38.915 675.856 38.915 673.601C38.915 670.876 38.168 668.693 36.6738 667.053C35.1797 665.383 33.3047 663.962 31.0488 662.79C28.8223 661.589 26.3906 660.49 23.7539 659.494C22.4355 658.996 21.1611 658.439 19.9307 657.824C18.7295 657.18 17.5723 656.491 16.459 655.759C14.2031 654.294 12.3281 652.448 10.834 650.222C9.33984 647.995 8.59277 645.036 8.59277 641.345C8.59277 639.265 8.90039 637.419 9.51562 635.808C10.1602 634.167 11.0098 632.731 12.0645 631.501C13.1484 630.241 14.4229 629.187 15.8877 628.337C17.3525 627.487 18.9053 626.799 20.5459 626.271C22.2158 625.715 23.9443 625.319 25.7314 625.085C27.5479 624.821 29.335 624.689 31.0928 624.689C34.4033 624.689 37.4062 625.041 40.1016 625.744C42.8262 626.418 44.7744 627.385 45.9463 628.645V643.85L41.4199 644.729L38.0361 631.149C35.5752 630.153 33.1143 629.655 30.6533 629.655C28.9541 629.655 27.3428 629.89 25.8193 630.358C24.2959 630.827 22.9482 631.545 21.7764 632.512C20.6338 633.449 19.7256 634.65 19.0518 636.115C18.3779 637.58 18.041 639.323 18.041 641.345C18.041 643.776 18.7881 645.754 20.2822 647.277C21.7764 648.801 23.6367 650.163 25.8633 651.364C28.1191 652.536 30.5654 653.693 33.2021 654.836C35.8096 655.949 38.2412 657.297 40.4971 658.879C42.7529 660.461 44.6279 662.424 46.1221 664.768C47.6162 667.111 48.3633 670.056 48.3633 673.601C48.3633 676.853 47.7188 679.548 46.4297 681.687C45.1406 683.825 43.4268 685.554 41.2881 686.872C40.2334 687.517 39.0908 688.059 37.8604 688.498C36.6592 688.938 35.3994 689.289 34.0811 689.553C32.792 689.816 31.459 690.007 30.082 690.124C28.7344 690.241 27.3867 690.3 26.0391 690.3C24.0762 690.3 22.1426 690.183 20.2383 689.948C18.3633 689.743 16.6201 689.45 15.0088 689.069C13.3975 688.718 11.9766 688.308 10.7461 687.839C9.54492 687.341 8.65137 686.843 8.06543 686.345V671.184ZM58.6904 643.85L54.208 642.927V625.92H107.03V642.927L102.548 643.85L99.5596 630.886H85.2773V683.181L93.8027 684.895L92.9238 688.938H67.6992V685.773L76.2686 683.181V630.886H61.6787L58.6904 643.85ZM156.161 673.557L160.863 674.523V688.938H112.084V685.773L120.609 683.181V631.677L112.084 630.007L112.963 625.92H158.974V640.686L154.447 641.608L151.591 630.886H129.618V653.737L144.823 653.386L147.24 647.365L150.404 648.244V664.196L147.899 665.075L144.823 659.143L129.618 658.703V683.972H153.305L156.161 673.557ZM190.395 625.92C193.148 625.92 195.976 626.096 198.876 626.447C201.806 626.77 204.486 627.59 206.918 628.908C209.35 630.227 211.342 632.189 212.895 634.797C214.447 637.404 215.224 640.993 215.224 645.563C215.224 649.577 214.447 652.814 212.895 655.275C211.342 657.736 209.35 659.641 206.918 660.988C204.486 662.336 201.806 663.259 198.876 663.757C195.976 664.226 193.148 664.46 190.395 664.46H184.638V683.181L195.009 684.895L194.086 688.938H167.104V685.773L175.629 683.181V631.677L167.104 630.007L167.982 625.92H190.395ZM184.638 630.886V659.494H190.395C192.328 659.494 194.203 659.362 196.02 659.099C197.865 658.835 199.506 658.234 200.941 657.297C202.377 656.359 203.534 654.968 204.413 653.122C205.321 651.247 205.775 648.728 205.775 645.563C205.775 642.751 205.365 640.407 204.545 638.532C203.754 636.628 202.67 635.119 201.293 634.006C199.916 632.893 198.29 632.102 196.415 631.633C194.569 631.135 192.562 630.886 190.395 630.886H184.638ZM286.767 684.895L285.844 688.938H260.663V685.773L269.188 683.181V659.318H238.603V683.181L247.172 684.895L246.249 688.938H221.068V685.773L229.594 683.181V631.677L221.068 630.007L221.947 625.92H247.172V629.084L238.603 631.677V654.396H269.188V631.677L260.663 630.007L261.542 625.92H286.767V629.084L278.197 631.677V683.181L286.767 684.895ZM337.304 673.557L342.006 674.523V688.938H293.227V685.773L301.752 683.181V631.677L293.227 630.007L294.105 625.92H340.116V640.686L335.59 641.608L332.733 630.886H310.761V653.737L325.966 653.386L328.383 647.365L331.547 648.244V664.196L329.042 665.075L325.966 659.143L310.761 658.703V683.972H334.447L337.304 673.557ZM362.177 625.92L399.003 674.787V631.677L390.521 630.007L391.4 625.92H412.934V629.084L404.364 631.677V688.938H399.003L362.177 639.982V683.181L370.702 684.895L369.823 688.938H348.202V685.773L356.771 683.181V631.677L348.202 630.007L349.125 625.92H362.177ZM420.097 671.184L424.579 670.305L427.919 683.4C429.501 683.986 431.112 684.455 432.753 684.807C434.394 685.129 436.049 685.29 437.719 685.29C439.447 685.29 441.103 685.114 442.685 684.763C444.296 684.382 445.702 683.737 446.903 682.829C448.134 681.921 449.115 680.72 449.848 679.226C450.58 677.731 450.946 675.856 450.946 673.601C450.946 670.876 450.199 668.693 448.705 667.053C447.211 665.383 445.336 663.962 443.08 662.79C440.854 661.589 438.422 660.49 435.785 659.494C434.467 658.996 433.192 658.439 431.962 657.824C430.761 657.18 429.604 656.491 428.49 655.759C426.234 654.294 424.359 652.448 422.865 650.222C421.371 647.995 420.624 645.036 420.624 641.345C420.624 639.265 420.932 637.419 421.547 635.808C422.191 634.167 423.041 632.731 424.096 631.501C425.18 630.241 426.454 629.187 427.919 628.337C429.384 627.487 430.937 626.799 432.577 626.271C434.247 625.715 435.976 625.319 437.763 625.085C439.579 624.821 441.366 624.689 443.124 624.689C446.435 624.689 449.438 625.041 452.133 625.744C454.857 626.418 456.806 627.385 457.978 628.645V643.85L453.451 644.729L450.067 631.149C447.606 630.153 445.146 629.655 442.685 629.655C440.985 629.655 439.374 629.89 437.851 630.358C436.327 630.827 434.979 631.545 433.808 632.512C432.665 633.449 431.757 634.65 431.083 636.115C430.409 637.58 430.072 639.323 430.072 641.345C430.072 643.776 430.819 645.754 432.313 647.277C433.808 648.801 435.668 650.163 437.895 651.364C440.15 652.536 442.597 653.693 445.233 654.836C447.841 655.949 450.272 657.297 452.528 658.879C454.784 660.461 456.659 662.424 458.153 664.768C459.647 667.111 460.395 670.056 460.395 673.601C460.395 676.853 459.75 679.548 458.461 681.687C457.172 683.825 455.458 685.554 453.319 686.872C452.265 687.517 451.122 688.059 449.892 688.498C448.69 688.938 447.431 689.289 446.112 689.553C444.823 689.816 443.49 690.007 442.113 690.124C440.766 690.241 439.418 690.3 438.07 690.3C436.107 690.3 434.174 690.183 432.27 689.948C430.395 689.743 428.651 689.45 427.04 689.069C425.429 688.718 424.008 688.308 422.777 687.839C421.576 687.341 420.683 686.843 420.097 686.345V671.184ZM499.901 685.246C502.89 685.246 505.614 684.528 508.075 683.093C510.536 681.657 512.631 679.738 514.359 677.336C516.117 674.934 517.479 672.15 518.446 668.986C519.413 665.793 519.896 662.482 519.896 659.055C519.896 655.334 519.472 651.701 518.622 648.156C517.772 644.611 516.439 641.477 514.623 638.752C512.836 636.027 510.551 633.83 507.768 632.16C504.984 630.461 501.674 629.611 497.836 629.611C494.818 629.611 492.079 630.344 489.618 631.809C487.187 633.244 485.092 635.163 483.334 637.565C481.605 639.968 480.258 642.766 479.291 645.959C478.324 649.123 477.841 652.404 477.841 655.803C477.841 659.523 478.266 663.156 479.115 666.701C479.965 670.246 481.283 673.381 483.07 676.105C484.857 678.83 487.143 681.042 489.926 682.741C492.738 684.411 496.063 685.246 499.901 685.246ZM498.803 624.689C503.783 624.689 508.178 625.598 511.986 627.414C515.795 629.201 518.974 631.604 521.522 634.621C524.101 637.639 526.049 641.14 527.367 645.124C528.686 649.079 529.345 653.21 529.345 657.517C529.345 662.028 528.627 666.276 527.191 670.261C525.785 674.245 523.778 677.717 521.171 680.676C518.563 683.605 515.385 685.935 511.635 687.663C507.885 689.362 503.637 690.212 498.891 690.212C493.91 690.212 489.516 689.318 485.707 687.531C481.898 685.715 478.705 683.298 476.127 680.28C473.549 677.233 471.615 673.732 470.326 669.777C469.037 665.822 468.393 661.677 468.393 657.341C468.393 652.858 469.096 648.625 470.502 644.641C471.908 640.627 473.915 637.155 476.522 634.226C479.159 631.267 482.353 628.938 486.103 627.238C489.853 625.539 494.086 624.689 498.803 624.689ZM549.472 625.92L586.298 674.787V631.677L577.816 630.007L578.695 625.92H600.229V629.084L591.659 631.677V688.938H586.298L549.472 639.982V683.181L557.997 684.895L557.118 688.938H535.497V685.773L544.066 683.181V631.677L535.497 630.007L536.42 625.92H549.472ZM619.257 628.82C619.638 630.314 619.652 632.116 619.301 634.226C618.979 636.306 618.378 638.371 617.499 640.422C616.649 642.473 615.58 644.304 614.291 645.915C613.002 647.526 611.566 648.61 609.984 649.167L608.183 646.926C609.267 646.193 610.131 645.344 610.775 644.377C611.449 643.41 611.947 642.399 612.27 641.345C612.621 640.261 612.812 639.206 612.841 638.181C612.87 637.155 612.797 636.218 612.621 635.368C609.809 633.933 607.67 631.809 606.205 628.996C607.787 626.184 610.014 624.001 612.885 622.448C615.639 623.942 617.763 626.066 619.257 628.82ZM627.606 671.184L632.089 670.305L635.429 683.4C637.011 683.986 638.622 684.455 640.263 684.807C641.903 685.129 643.559 685.29 645.229 685.29C646.957 685.29 648.612 685.114 650.194 684.763C651.806 684.382 653.212 683.737 654.413 682.829C655.644 681.921 656.625 680.72 657.357 679.226C658.09 677.731 658.456 675.856 658.456 673.601C658.456 670.876 657.709 668.693 656.215 667.053C654.721 665.383 652.846 663.962 650.59 662.79C648.363 661.589 645.932 660.49 643.295 659.494C641.977 658.996 640.702 658.439 639.472 657.824C638.271 657.18 637.113 656.491 636 655.759C633.744 654.294 631.869 652.448 630.375 650.222C628.881 647.995 628.134 645.036 628.134 641.345C628.134 639.265 628.441 637.419 629.057 635.808C629.701 634.167 630.551 632.731 631.605 631.501C632.689 630.241 633.964 629.187 635.429 628.337C636.894 627.487 638.446 626.799 640.087 626.271C641.757 625.715 643.485 625.319 645.272 625.085C647.089 624.821 648.876 624.689 650.634 624.689C653.944 624.689 656.947 625.041 659.643 625.744C662.367 626.418 664.315 627.385 665.487 628.645V643.85L660.961 644.729L657.577 631.149C655.116 630.153 652.655 629.655 650.194 629.655C648.495 629.655 646.884 629.89 645.36 630.358C643.837 630.827 642.489 631.545 641.317 632.512C640.175 633.449 639.267 634.65 638.593 636.115C637.919 637.58 637.582 639.323 637.582 641.345C637.582 643.776 638.329 645.754 639.823 647.277C641.317 648.801 643.178 650.163 645.404 651.364C647.66 652.536 650.106 653.693 652.743 654.836C655.351 655.949 657.782 657.297 660.038 658.879C662.294 660.461 664.169 662.424 665.663 664.768C667.157 667.111 667.904 670.056 667.904 673.601C667.904 676.853 667.26 679.548 665.971 681.687C664.682 683.825 662.968 685.554 660.829 686.872C659.774 687.517 658.632 688.059 657.401 688.498C656.2 688.938 654.94 689.289 653.622 689.553C652.333 689.816 651 690.007 649.623 690.124C648.275 690.241 646.928 690.3 645.58 690.3C643.617 690.3 641.684 690.183 639.779 689.948C637.904 689.743 636.161 689.45 634.55 689.069C632.938 688.718 631.518 688.308 630.287 687.839C629.086 687.341 628.192 686.843 627.606 686.345V671.184ZM763.046 684.895L762.123 688.938H736.942V685.773L745.468 683.181V659.318H714.882V683.181L723.451 684.895L722.528 688.938H697.348V685.773L705.873 683.181V631.677L697.348 630.007L698.227 625.92H723.451V629.084L714.882 631.677V654.396H745.468V631.677L736.942 630.007L737.821 625.92H763.046V629.084L754.477 631.677V683.181L763.046 684.895ZM787.04 631.677V683.181L795.609 684.895L794.687 688.938H769.506V685.773L778.031 683.181V631.677L769.506 630.007L770.385 625.92H795.609V629.084L787.04 631.677ZM803.563 671.184L808.046 670.305L811.386 683.4C812.968 683.986 814.579 684.455 816.22 684.807C817.86 685.129 819.516 685.29 821.186 685.29C822.914 685.29 824.569 685.114 826.151 684.763C827.763 684.382 829.169 683.737 830.37 682.829C831.601 681.921 832.582 680.72 833.314 679.226C834.047 677.731 834.413 675.856 834.413 673.601C834.413 670.876 833.666 668.693 832.172 667.053C830.678 665.383 828.803 663.962 826.547 662.79C824.32 661.589 821.889 660.49 819.252 659.494C817.934 658.996 816.659 658.439 815.429 657.824C814.228 657.18 813.07 656.491 811.957 655.759C809.701 654.294 807.826 652.448 806.332 650.222C804.838 647.995 804.091 645.036 804.091 641.345C804.091 639.265 804.398 637.419 805.014 635.808C805.658 634.167 806.508 632.731 807.562 631.501C808.646 630.241 809.921 629.187 811.386 628.337C812.851 627.487 814.403 626.799 816.044 626.271C817.714 625.715 819.442 625.319 821.229 625.085C823.046 624.821 824.833 624.689 826.591 624.689C829.901 624.689 832.904 625.041 835.6 625.744C838.324 626.418 840.272 627.385 841.444 628.645V643.85L836.918 644.729L833.534 631.149C831.073 630.153 828.612 629.655 826.151 629.655C824.452 629.655 822.841 629.89 821.317 630.358C819.794 630.827 818.446 631.545 817.274 632.512C816.132 633.449 815.224 634.65 814.55 636.115C813.876 637.58 813.539 639.323 813.539 641.345C813.539 643.776 814.286 645.754 815.78 647.277C817.274 648.801 819.135 650.163 821.361 651.364C823.617 652.536 826.063 653.693 828.7 654.836C831.308 655.949 833.739 657.297 835.995 658.879C838.251 660.461 840.126 662.424 841.62 664.768C843.114 667.111 843.861 670.056 843.861 673.601C843.861 676.853 843.217 679.548 841.928 681.687C840.639 683.825 838.925 685.554 836.786 686.872C835.731 687.517 834.589 688.059 833.358 688.498C832.157 688.938 830.897 689.289 829.579 689.553C828.29 689.816 826.957 690.007 825.58 690.124C824.232 690.241 822.885 690.3 821.537 690.3C819.574 690.3 817.641 690.183 815.736 689.948C813.861 689.743 812.118 689.45 810.507 689.069C808.896 688.718 807.475 688.308 806.244 687.839C805.043 687.341 804.149 686.843 803.563 686.345V671.184ZM854.188 643.85L849.706 642.927V625.92H902.528V642.927L898.046 643.85L895.058 630.886H880.775V683.181L889.301 684.895L888.422 688.938H863.197V685.773L871.767 683.181V630.886H857.177L854.188 643.85ZM939.794 685.246C942.782 685.246 945.507 684.528 947.968 683.093C950.429 681.657 952.523 679.738 954.252 677.336C956.01 674.934 957.372 672.15 958.339 668.986C959.306 665.793 959.789 662.482 959.789 659.055C959.789 655.334 959.364 651.701 958.515 648.156C957.665 644.611 956.332 641.477 954.516 638.752C952.729 636.027 950.443 633.83 947.66 632.16C944.877 630.461 941.566 629.611 937.729 629.611C934.711 629.611 931.972 630.344 929.511 631.809C927.079 633.244 924.984 635.163 923.227 637.565C921.498 639.968 920.15 642.766 919.184 645.959C918.217 649.123 917.733 652.404 917.733 655.803C917.733 659.523 918.158 663.156 919.008 666.701C919.857 670.246 921.176 673.381 922.963 676.105C924.75 678.83 927.035 681.042 929.818 682.741C932.631 684.411 935.956 685.246 939.794 685.246ZM938.695 624.689C943.676 624.689 948.07 625.598 951.879 627.414C955.688 629.201 958.866 631.604 961.415 634.621C963.993 637.639 965.941 641.14 967.26 645.124C968.578 649.079 969.237 653.21 969.237 657.517C969.237 662.028 968.52 666.276 967.084 670.261C965.678 674.245 963.671 677.717 961.063 680.676C958.456 683.605 955.277 685.935 951.527 687.663C947.777 689.362 943.529 690.212 938.783 690.212C933.803 690.212 929.408 689.318 925.6 687.531C921.791 685.715 918.598 683.298 916.02 680.28C913.441 677.233 911.508 673.732 910.219 669.777C908.93 665.822 908.285 661.677 908.285 657.341C908.285 652.858 908.988 648.625 910.395 644.641C911.801 640.627 913.808 637.155 916.415 634.226C919.052 631.267 922.245 628.938 925.995 627.238C929.745 625.539 933.979 624.689 938.695 624.689ZM998.725 625.92C1001.48 625.92 1004.33 626.125 1007.29 626.535C1010.28 626.916 1013.01 627.751 1015.47 629.04C1017.93 630.329 1019.96 632.248 1021.58 634.797C1023.22 637.346 1024.04 640.788 1024.04 645.124C1024.04 647.204 1023.73 649.094 1023.11 650.793C1022.53 652.463 1021.72 653.928 1020.7 655.188C1019.67 656.447 1018.47 657.546 1017.09 658.483C1015.72 659.392 1014.22 660.153 1012.61 660.769L1026.37 683.444L1033.66 684.895L1032.74 688.938H1019.16L1003.87 662.834C1002.05 663.01 1000.34 663.098 998.725 663.098H992.968V683.181L1001.54 684.895L1000.61 688.938H975.434V685.773L983.959 683.181V631.677L975.434 630.007L976.312 625.92H998.725ZM992.968 630.886V658.176H998.725C1000.66 658.176 1002.56 658.029 1004.44 657.736C1006.34 657.414 1008.04 656.799 1009.54 655.891C1011.03 654.953 1012.25 653.635 1013.18 651.936C1014.12 650.207 1014.59 647.937 1014.59 645.124C1014.59 642.165 1014.12 639.777 1013.18 637.961C1012.25 636.115 1011.03 634.68 1009.54 633.654C1008.04 632.6 1006.34 631.882 1004.44 631.501C1002.56 631.091 1000.66 630.886 998.725 630.886H992.968ZM1052.65 631.677V683.181L1061.21 684.895L1060.29 688.938H1035.11V685.773L1043.64 683.181V631.677L1035.11 630.007L1035.99 625.92H1061.21V629.084L1052.65 631.677ZM1109.82 631.94C1108.38 631.003 1106.71 630.402 1104.81 630.139C1102.93 629.875 1101.09 629.743 1099.27 629.743C1096.4 629.743 1093.6 630.3 1090.88 631.413C1088.15 632.526 1085.74 634.24 1083.63 636.555C1081.52 638.869 1079.83 641.784 1078.57 645.3C1077.31 648.815 1076.68 652.946 1076.68 657.692C1076.68 662.819 1077.31 667.141 1078.57 670.656C1079.83 674.143 1081.55 676.955 1083.71 679.094C1085.88 681.232 1088.37 682.785 1091.19 683.752C1094 684.689 1096.97 685.173 1100.11 685.202C1102.39 685.173 1104.33 684.924 1105.91 684.455C1107.49 683.957 1108.97 683.356 1110.35 682.653L1113.6 668.723L1118.17 669.689V685.07C1115.59 686.33 1112.67 687.502 1109.42 688.586C1106.2 689.67 1102.38 690.212 1097.95 690.212C1093.85 690.212 1089.94 689.523 1086.22 688.146C1082.5 686.74 1079.23 684.675 1076.42 681.95C1073.61 679.226 1071.37 675.827 1069.7 671.755C1068.06 667.683 1067.24 662.995 1067.24 657.692C1067.24 652.507 1068.14 647.893 1069.96 643.85C1071.81 639.777 1074.27 636.335 1077.34 633.522C1080.45 630.681 1084.02 628.513 1088.07 627.019C1092.14 625.495 1096.39 624.733 1100.81 624.733C1103.56 624.733 1106.32 625.041 1109.07 625.656C1111.85 626.242 1114.62 627.18 1117.38 628.469V643.806L1112.85 644.729L1109.82 631.94ZM1213.75 684.895L1212.83 688.938H1187.65V685.773L1196.17 683.181V659.318H1165.58V683.181L1174.15 684.895L1173.23 688.938H1148.05V685.773L1156.58 683.181V631.677L1148.05 630.007L1148.93 625.92H1174.15V629.084L1165.58 631.677V654.396H1196.17V631.677L1187.65 630.007L1188.52 625.92H1213.75V629.084L1205.18 631.677V683.181L1213.75 684.895ZM1251.37 685.246C1254.35 685.246 1257.08 684.528 1259.54 683.093C1262 681.657 1264.1 679.738 1265.82 677.336C1267.58 674.934 1268.94 672.15 1269.91 668.986C1270.88 665.793 1271.36 662.482 1271.36 659.055C1271.36 655.334 1270.94 651.701 1270.09 648.156C1269.24 644.611 1267.9 641.477 1266.09 638.752C1264.3 636.027 1262.02 633.83 1259.23 632.16C1256.45 630.461 1253.14 629.611 1249.3 629.611C1246.28 629.611 1243.54 630.344 1241.08 631.809C1238.65 633.244 1236.56 635.163 1234.8 637.565C1233.07 639.968 1231.72 642.766 1230.76 645.959C1229.79 649.123 1229.31 652.404 1229.31 655.803C1229.31 659.523 1229.73 663.156 1230.58 666.701C1231.43 670.246 1232.75 673.381 1234.54 676.105C1236.32 678.83 1238.61 681.042 1241.39 682.741C1244.2 684.411 1247.53 685.246 1251.37 685.246ZM1250.27 624.689C1255.25 624.689 1259.64 625.598 1263.45 627.414C1267.26 629.201 1270.44 631.604 1272.99 634.621C1275.57 637.639 1277.51 641.14 1278.83 645.124C1280.15 649.079 1280.81 653.21 1280.81 657.517C1280.81 662.028 1280.09 666.276 1278.66 670.261C1277.25 674.245 1275.24 677.717 1272.64 680.676C1270.03 683.605 1266.85 685.935 1263.1 687.663C1259.35 689.362 1255.1 690.212 1250.36 690.212C1245.38 690.212 1240.98 689.318 1237.17 687.531C1233.36 685.715 1230.17 683.298 1227.59 680.28C1225.01 677.233 1223.08 673.732 1221.79 669.777C1220.5 665.822 1219.86 661.677 1219.86 657.341C1219.86 652.858 1220.56 648.625 1221.97 644.641C1223.37 640.627 1225.38 637.155 1227.99 634.226C1230.62 631.267 1233.82 628.938 1237.57 627.238C1241.32 625.539 1245.55 624.689 1250.27 624.689ZM1303.18 631.677V668.459C1303.18 674.084 1304.64 678.303 1307.57 681.115C1310.53 683.898 1314.74 685.29 1320.18 685.29C1324.2 685.29 1327.26 684.646 1329.37 683.356C1331.51 682.067 1333.03 680.412 1333.94 678.391C1334.85 676.34 1335.35 674.084 1335.43 671.623C1335.52 669.162 1335.57 666.789 1335.57 664.504L1335.39 631.677L1326.82 630.007L1327.74 625.92H1349.32V629.084L1341.67 631.677V666.394C1341.67 669.03 1341.42 671.755 1340.93 674.567C1340.43 677.38 1339.4 679.943 1337.85 682.258C1336.33 684.572 1334.12 686.477 1331.21 687.971C1328.34 689.465 1324.55 690.212 1319.83 690.212C1311.37 690.212 1304.96 688.527 1300.63 685.158C1296.32 681.76 1294.17 676.164 1294.17 668.371V631.677L1285.6 630.007L1286.52 625.92H1311.7V629.084L1303.18 631.677ZM1356.13 671.184L1360.61 670.305L1363.95 683.4C1365.54 683.986 1367.15 684.455 1368.79 684.807C1370.43 685.129 1372.08 685.29 1373.75 685.29C1375.48 685.29 1377.14 685.114 1378.72 684.763C1380.33 684.382 1381.74 683.737 1382.94 682.829C1384.17 681.921 1385.15 680.72 1385.88 679.226C1386.62 677.731 1386.98 675.856 1386.98 673.601C1386.98 670.876 1386.23 668.693 1384.74 667.053C1383.25 665.383 1381.37 663.962 1379.12 662.79C1376.89 661.589 1374.46 660.49 1371.82 659.494C1370.5 658.996 1369.23 658.439 1368 657.824C1366.8 657.18 1365.64 656.491 1364.53 655.759C1362.27 654.294 1360.39 652.448 1358.9 650.222C1357.41 647.995 1356.66 645.036 1356.66 641.345C1356.66 639.265 1356.97 637.419 1357.58 635.808C1358.23 634.167 1359.08 632.731 1360.13 631.501C1361.21 630.241 1362.49 629.187 1363.95 628.337C1365.42 627.487 1366.97 626.799 1368.61 626.271C1370.28 625.715 1372.01 625.319 1373.8 625.085C1375.61 624.821 1377.4 624.689 1379.16 624.689C1382.47 624.689 1385.47 625.041 1388.17 625.744C1390.89 626.418 1392.84 627.385 1394.01 628.645V643.85L1389.49 644.729L1386.1 631.149C1383.64 630.153 1381.18 629.655 1378.72 629.655C1377.02 629.655 1375.41 629.89 1373.89 630.358C1372.36 630.827 1371.01 631.545 1369.84 632.512C1368.7 633.449 1367.79 634.65 1367.12 636.115C1366.44 637.58 1366.11 639.323 1366.11 641.345C1366.11 643.776 1366.85 645.754 1368.35 647.277C1369.84 648.801 1371.7 650.163 1373.93 651.364C1376.19 652.536 1378.63 653.693 1381.27 654.836C1383.88 655.949 1386.31 657.297 1388.56 658.879C1390.82 660.461 1392.69 662.424 1394.19 664.768C1395.68 667.111 1396.43 670.056 1396.43 673.601C1396.43 676.853 1395.79 679.548 1394.5 681.687C1393.21 683.825 1391.49 685.554 1389.35 686.872C1388.3 687.517 1387.16 688.059 1385.93 688.498C1384.73 688.938 1383.47 689.289 1382.15 689.553C1380.86 689.816 1379.53 690.007 1378.15 690.124C1376.8 690.241 1375.45 690.3 1374.11 690.3C1372.14 690.3 1370.21 690.183 1368.3 689.948C1366.43 689.743 1364.69 689.45 1363.08 689.069C1361.46 688.718 1360.04 688.308 1358.81 687.839C1357.61 687.341 1356.72 686.843 1356.13 686.345V671.184ZM1447.8 673.557L1452.5 674.523V688.938H1403.72V685.773L1412.25 683.181V631.677L1403.72 630.007L1404.6 625.92H1450.61V640.686L1446.09 641.608L1443.23 630.886H1421.26V653.737L1436.46 653.386L1438.88 647.365L1442.04 648.244V664.196L1439.54 665.075L1436.46 659.143L1421.26 658.703V683.972H1444.95L1447.8 673.557Z" fill="black"/>
<path d="M712.638 566.305V562.743H788.956V566.305H712.638Z" fill="black" stroke="black" stroke-width="1.01758"/>
<path d="M708.567 569.357H712.638H793.026V573.428H708.567V569.357Z" stroke="black" stroke-width="1.01758"/>
<path d="M708.059 569.357H712.178H793.535V573.428H708.059V569.357Z" fill="black" stroke="black" stroke-width="1.01758"/>
<path d="M705.006 576.48H709.419H796.588V580.551H705.006V576.48Z" fill="black" stroke="black" stroke-width="1.01758"/>
<path d="M701.953 583.604H706.759H801.676V587.674H701.953V583.604Z" fill="black" stroke="black" stroke-width="1.01758"/>
<path d="M695.848 590.727H701.242H807.781V594.797H695.848V590.727Z" fill="black" stroke="black" stroke-width="1.01758"/>
<path d="M690.76 597.85H696.645H812.869V601.92H690.76V597.85Z" fill="black" stroke="black" stroke-width="1.01758"/>
<path d="M37.4746 602.938H1414.26" stroke="black" stroke-width="1.52637"/>
</g>
<defs>
<clipPath id="clip0_8_83">
<rect width="1465.31" height="731" fill="white"/>
</clipPath>
</defs>
</svg>
