<?xml version="1.0" encoding="utf-8"?>
<!-- Generator: Adobe Illustrator 16.0.3, SVG Export Plug-In . SVG Version: 6.00 Build 0)  -->
<!DOCTYPE svg PUBLIC "-//W3C//DTD SVG 1.1//EN" "http://www.w3.org/Graphics/SVG/1.1/DTD/svg11.dtd">
<svg version="1.1" id="Layer_1" xmlns="http://www.w3.org/2000/svg" xmlns:xlink="http://www.w3.org/1999/xlink" x="0px" y="0px"
	 width="2767.856px" height="815.277px" viewBox="0 0 2767.856 815.277" enable-background="new 0 0 2767.856 815.277"
	 xml:space="preserve">
<g>
	<path d="M814.248,142.856h42.175l80.566,129.5h0.541v-129.5h39.744v193.035h-42.447L854.53,206.659h-0.539v129.232h-39.743V142.856
		z"/>
	<path d="M1070.681,192.331c44.068,0,72.455,29.199,72.455,73.807c0,44.34-28.387,73.539-72.455,73.539
		c-43.799,0-72.186-29.199-72.186-73.539C998.495,221.53,1026.882,192.331,1070.681,192.331z M1070.681,310.747
		c26.225,0,34.064-22.439,34.064-44.609c0-22.439-7.84-44.879-34.064-44.879c-25.955,0-33.795,22.439-33.795,44.879
		C1036.886,288.308,1044.726,310.747,1070.681,310.747z"/>
	<path d="M1160.337,196.116h36.498v25.955h0.541c7.029-17.574,25.955-29.74,44.609-29.74c2.703,0,5.949,0.541,8.381,1.352v35.688
		c-3.514-0.811-9.191-1.352-13.789-1.352c-28.115,0-37.848,20.277-37.848,44.881v62.992h-38.393V196.116z"/>
	<path d="M1329.546,196.116h28.117v25.686h-28.117v69.211c0,12.977,3.244,16.221,16.221,16.221c4.057,0,7.842-0.271,11.896-1.082
		v30.01c-6.49,1.082-14.871,1.354-22.441,1.354c-23.52,0-44.068-5.408-44.068-33.254v-82.459h-23.25v-25.686h23.25v-41.904h38.393
		V196.116z"/>
	<path d="M1378.454,142.856h38.391v72.727h0.813c9.73-15.682,26.494-23.252,40.822-23.252c40.826,0,51.1,22.98,51.1,57.586v85.975
		h-38.393v-78.945c0-22.98-6.758-34.334-24.602-34.334c-20.818,0-29.74,11.625-29.74,40.014v73.266h-38.391V142.856z"/>
	<path d="M1632.8,260.731l-71.105-117.875h47.854l45.15,76.24l44.881-76.24h47.311l-71.645,118.957v74.078H1632.8V260.731z"/>
	<path d="M1802.042,192.331c44.068,0,72.455,29.199,72.455,73.807c0,44.34-28.387,73.539-72.455,73.539
		c-43.799,0-72.186-29.199-72.186-73.539C1729.856,221.53,1758.243,192.331,1802.042,192.331z M1802.042,310.747
		c26.225,0,34.064-22.439,34.064-44.609c0-22.439-7.84-44.879-34.064-44.879c-25.955,0-33.795,22.439-33.795,44.879
		C1768.247,288.308,1776.087,310.747,1802.042,310.747z"/>
	<path d="M1899.368,196.116h36.5v25.955h0.539c7.029-17.574,25.955-29.74,44.611-29.74c2.701,0,5.947,0.541,8.379,1.352v35.688
		c-3.514-0.811-9.191-1.352-13.787-1.352c-28.117,0-37.852,20.277-37.852,44.881v62.992h-38.391V196.116z"/>
	<path d="M2008.052,142.856h38.391v103.545l48.393-50.285h45.422l-52.721,51.367l58.666,88.408h-46.5l-38.391-62.453l-14.869,14.33
		v48.123h-38.391V142.856z"/>
	<path d="M2189.458,290.472c0.271,16.762,14.33,23.52,29.469,23.52c11.084,0,25.145-4.324,25.145-17.844
		c0-11.623-15.951-15.68-43.529-21.627c-22.168-4.865-44.338-12.707-44.338-37.311c0-35.688,30.82-44.879,60.83-44.879
		c30.553,0,58.668,10.273,61.643,44.609h-36.498c-1.082-14.869-12.438-18.924-26.225-18.924c-8.65,0-21.359,1.621-21.359,12.977
		c0,13.787,21.627,15.682,43.527,20.816c22.441,5.137,44.34,13.248,44.34,39.203c0,36.768-31.902,48.664-63.805,48.664
		c-32.443,0-64.074-12.166-65.697-49.205H2189.458z"/>
	<path d="M2304.897,142.856h38.393v72.727h0.811c9.732-15.682,26.496-23.252,40.824-23.252c40.824,0,51.098,22.98,51.098,57.586
		v85.975h-38.391v-78.945c0-22.98-6.76-34.334-24.604-34.334c-20.816,0-29.738,11.625-29.738,40.014v73.266h-38.393V142.856z"/>
	<path d="M2504.688,174.487H2466.3v-31.631h38.389V174.487z M2466.3,196.116h38.389v139.775H2466.3V196.116z"/>
	<path d="M2534.968,196.116h36.498v25.955h0.541c7.029-17.574,25.953-29.74,44.609-29.74c2.703,0,5.947,0.541,8.381,1.352v35.688
		c-3.516-0.811-9.191-1.352-13.787-1.352c-28.117,0-37.852,20.277-37.852,44.881v62.992h-38.391V196.116z"/>
	<path d="M2666.903,275.329c1.082,24.334,12.979,35.418,34.336,35.418c15.41,0,27.846-9.461,30.281-18.113h33.793
		c-10.814,32.984-33.793,47.043-65.426,47.043c-44.068,0-71.375-30.281-71.375-73.539c0-41.904,28.928-73.807,71.375-73.807
		c47.582,0,70.564,40.014,67.861,82.998H2666.903z M2729.356,250.999c-3.514-19.467-11.896-29.74-30.551-29.74
		c-24.332,0-31.361,18.926-31.902,29.74H2729.356z"/>
</g>
<g>
	<path d="M956.187,441.942c-6.49-29.74-31.092-46.771-59.209-46.771c-51.098,0-72.726,42.715-72.726,84.893
		c0,42.174,21.628,84.893,72.726,84.893c35.688,0,58.396-27.578,61.912-61.912h18.385c-5.137,47.313-35.146,77.592-80.297,77.592
		c-60.83,0-91.11-47.852-91.11-100.572s30.28-100.572,91.11-100.572c36.498,0,72.727,21.898,77.594,62.451H956.187z"/>
	<path d="M1127.052,506.829c0,40.012-23.252,73.807-65.969,73.807s-65.969-33.795-65.969-73.807
		c0-40.014,23.252-73.809,65.969-73.809S1127.052,466.815,1127.052,506.829z M1012.147,506.829
		c0,29.738,16.223,59.479,48.936,59.479s48.934-29.74,48.934-59.479c0-29.74-16.221-59.48-48.934-59.48
		S1012.147,477.089,1012.147,506.829z"/>
	<path d="M1265.474,576.581h-15.68v-25.145h-0.541c-8.922,18.656-27.307,29.199-48.125,29.199
		c-35.146,0-48.934-20.547-48.934-52.988v-90.57h17.031v90.84c0.813,25.141,10.275,38.391,37.311,38.391
		c29.199,0,41.904-27.576,41.904-55.965v-73.266h17.033V576.581z"/>
	<path d="M1297.372,437.077h17.033v24.061h0.541c6.219-16.762,24.873-28.117,44.609-28.117c39.203,0,51.098,20.547,51.098,53.803
		v89.758h-17.033v-87.055c0-24.063-7.84-42.178-35.416-42.178c-27.037,0-43.258,20.549-43.799,47.855v81.377h-17.033V437.077z"/>
	<path d="M1469.856,437.077h28.389v14.328h-28.389v94.084c0,11.086,1.623,17.574,13.789,18.387c4.867,0,9.734-0.271,14.6-0.813
		v14.598c-5.139,0-10.004,0.543-15.141,0.543c-22.709,0-30.551-7.57-30.279-31.363v-95.436h-24.332v-14.328h24.332v-41.906h17.031
		V437.077z"/>
	<path d="M1507.163,437.077h18.115l45.961,118.957l42.986-118.957h17.033l-60.561,160.863c-9.732,23.52-15.41,30.279-36.77,30.279
		c-6.758-0.271-10.271-0.271-12.975-1.352V612.54c4.055,0.809,7.84,1.35,11.625,1.35c15.139,0,18.654-8.922,24.33-21.898
		l5.949-15.953L1507.163,437.077z"/>
	<path d="M1844.228,441.942c-6.49-29.74-31.092-46.771-59.209-46.771c-51.098,0-72.727,42.715-72.727,84.893
		c0,42.174,21.629,84.893,72.727,84.893c35.688,0,58.398-27.578,61.912-61.912h18.383c-5.135,47.313-35.146,77.592-80.295,77.592
		c-60.83,0-91.111-47.852-91.111-100.572s30.281-100.572,91.111-100.572c36.498,0,72.727,21.898,77.592,62.451H1844.228z"/>
	<path d="M2015.091,506.829c0,40.012-23.25,73.807-65.967,73.807s-65.967-33.795-65.967-73.807c0-40.014,23.25-73.809,65.967-73.809
		S2015.091,466.815,2015.091,506.829z M1900.19,506.829c0,29.738,16.221,59.479,48.934,59.479s48.936-29.74,48.936-59.479
		c0-29.74-16.223-59.48-48.936-59.48S1900.19,477.089,1900.19,506.829z"/>
	<path d="M2153.515,576.581h-15.682v-25.145h-0.539c-8.922,18.656-27.307,29.199-48.123,29.199
		c-35.148,0-48.936-20.547-48.936-52.988v-90.57h17.031v90.84c0.813,25.141,10.273,38.391,37.311,38.391
		c29.199,0,41.906-27.576,41.906-55.965v-73.266h17.031V576.581z"/>
	<path d="M2185.413,437.077h17.033v24.061h0.541c6.217-16.762,24.873-28.117,44.609-28.117c39.201,0,51.098,20.547,51.098,53.803
		v89.758h-17.033v-87.055c0-24.063-7.84-42.178-35.416-42.178c-27.035,0-43.258,20.549-43.799,47.855v81.377h-17.033V437.077z"/>
	<path d="M2429.272,480.876c-4.596-20.818-17.303-33.527-39.473-33.527c-32.713,0-48.934,29.74-48.934,59.48
		c0,29.738,16.221,59.479,48.934,59.479c21.09,0,38.393-16.492,40.555-39.742h17.033c-4.598,33.523-26.496,54.07-57.588,54.07
		c-42.717,0-65.965-33.795-65.965-73.807c0-40.014,23.248-73.809,65.965-73.809c29.74,0,52.721,15.951,56.506,47.855H2429.272z"/>
	<path d="M2471.448,383.546h17.033v27.305h-17.033V383.546z M2471.448,437.077h17.033v139.504h-17.033V437.077z"/>
	<path d="M2521.464,383.546h17.033v193.035h-17.033V383.546z"/>
</g>
<g>
	<path d="M81.129,335.925C92.187,193.487,211.625,80.966,356.852,80.966s264.666,112.521,275.724,254.959h80.568
		c-2.404-40.547-11.574-79.934-27.402-117.352c-17.98-42.512-43.713-80.684-76.48-113.451
		c-32.771-32.77-70.943-58.504-113.453-76.484C451.774,10.015,405.024,0.569,356.852,0.569s-94.924,9.445-138.957,28.068
		c-42.51,17.98-80.682,43.715-113.451,76.484c-8.537,8.537-16.586,17.449-24.154,26.701V0.001H-0.107v335.924H81.129z"/>
	<path d="M632.549,379.444C621.34,521.735,501.973,634.091,356.852,634.091S92.366,521.735,81.157,379.444H0.578
		c2.434,40.438,11.598,79.719,27.384,117.041c17.98,42.51,43.713,80.682,76.482,113.451c32.77,32.768,70.941,58.502,113.451,76.482
		c44.033,18.625,90.785,28.068,138.957,28.068c8.02,0,16.002-0.268,23.938-0.791c-39.061,13.719-81.038,21.184-124.728,21.184
		c-98.791,0-188.833-38.162-256.169-100.518v102.619c24.467,16.547,50.517,30.689,77.98,42.307
		c56.459,23.881,116.41,35.988,178.188,35.988s121.729-12.107,178.188-35.988c54.514-23.057,103.462-56.057,145.488-98.082
		c42.027-42.027,75.027-90.977,98.084-145.49c21.045-49.756,32.941-102.229,35.471-156.271H632.549z"/>
</g>
<g>
	<path d="M135.33,427.215c1.297,3.992,32.342,97.77,82.518,97.77c11.505,0,22.946-4.91,34.007-14.59
		c0.361-0.314,0.685-0.67,0.966-1.057l36.181-49.799c-1.842-1.08-3.638-2.244-5.367-3.5c-1.742-1.266-3.415-2.623-5.023-4.051
		l-35.75,49.203c-8.471,7.264-16.884,10.947-25.015,10.947c-33.935,0-62.254-64.17-70.315-88.936
		c-6.826-21.008-20.464-81.141-1.848-106.762c6.951-9.568,17.787-13.613,33.13-12.369l57.838,18.793
		c0.459-2.086,1.014-4.152,1.674-6.184c0.665-2.049,1.439-4.061,2.301-6.031l-58.545-19.022c-0.455-0.148-0.926-0.244-1.403-0.287
		c-2.393-0.219-4.748-0.328-7.001-0.328c-16.852,0-29.766,6.015-38.385,17.878C109.056,345.004,134.232,423.834,135.33,427.215z"/>
	<path d="M471.341,501.787l-36.18-49.799c-1.598,1.418-3.259,2.766-4.988,4.023c-1.741,1.266-3.549,2.436-5.405,3.525l35.749,49.205
		c5.686,13.631,5.458,24.803-0.691,34.133c-21.1,32.016-102.081,32.43-102.938,32.432c-22.683,0-85.392-5.828-102.937-32.432
		c-6.153-9.332-6.383-20.502-0.697-34.133l35.749-49.203c-1.842-1.08-3.637-2.244-5.367-3.5c-1.742-1.266-3.415-2.623-5.023-4.053
		l-36.183,49.801c-0.282,0.387-0.519,0.805-0.708,1.246c-7.691,17.951-7.185,33.734,1.506,46.912
		c24.908,37.771,110.047,38.205,113.703,38.205c3.61,0,88.71-0.434,113.612-38.195c8.692-13.182,9.198-28.967,1.505-46.922
		C471.86,502.592,471.623,502.174,471.341,501.787z"/>
	<path d="M475.429,316.637c0.666,2.047,1.224,4.129,1.686,6.23l57.842-18.793c15.341-1.236,26.181,2.799,33.134,12.363
		c22.406,30.822-1.591,105.969-1.813,106.652c-0.013,0.037-0.025,0.074-0.037,0.111c-8.038,24.736-36.342,88.936-70.324,88.936
		c-8.129,0-16.54-3.682-25.008-10.943l-35.748-49.203c-1.597,1.418-3.259,2.764-4.988,4.021c-1.741,1.266-3.55,2.438-5.405,3.525
		l36.183,49.801c0.282,0.389,0.605,0.744,0.966,1.059c11.058,9.678,22.497,14.586,34,14.586c50.18,0,81.242-93.818,82.517-97.742
		c0.013-0.037,0.025-0.074,0.037-0.111c1.084-3.336,26.25-82.127,0.017-118.234c-8.621-11.865-21.538-17.88-38.394-17.88
		c-2.253,0-4.609,0.109-7.003,0.328c-0.477,0.043-0.948,0.139-1.403,0.287l-58.542,19.021
		C474,312.607,474.769,314.604,475.429,316.637z"/>
	<path d="M356.861,230.527c2.153,0,4.306,0.111,6.447,0.322l0-60.82c4.73-19.896,16.194-29.569,35.028-29.569
		c37.033,0,87.398,36.24,87.936,36.63c18.351,13.333,65.659,54.906,64.215,86.742c-0.506,11.167-6.887,20.34-19.499,28.025
		l-57.843,18.794c0.855,1.957,1.623,3.953,2.283,5.986c0.666,2.047,1.224,4.129,1.686,6.23l58.542-19.021
		c0.456-0.148,0.894-0.346,1.305-0.592c16.774-10.002,25.642-23.07,26.357-38.84c2.049-45.197-66.575-95.592-69.532-97.74
		c-2.195-1.595-54.231-39.059-95.451-39.059c-25.227,0-41.726,13.92-47.713,40.254c-0.106,0.467-0.16,0.944-0.16,1.424l0,61.554
		C352.589,230.638,354.725,230.527,356.861,230.527z"/>
	<path d="M150.449,264.406c0.715,15.771,9.585,28.842,26.362,38.846c0.411,0.246,0.849,0.443,1.305,0.592l58.538,19.021
		c0.459-2.086,1.014-4.152,1.674-6.184c0.665-2.049,1.439-4.059,2.301-6.031l-57.844-18.796
		c-12.612-7.685-18.995-16.858-19.504-28.022c-1.748-38.304,63.522-86.236,64.134-86.682c0.027-0.02,0.055-0.039,0.083-0.06
		c0.504-0.366,50.841-36.625,87.942-36.625c18.833,0,30.296,9.671,35.025,29.563l0,60.817c2.125-0.208,4.261-0.319,6.397-0.319
		c2.153,0,4.306,0.111,6.447,0.322l0-61.557c0-0.479-0.054-0.956-0.16-1.424c-5.986-26.33-22.484-40.247-47.71-40.247
		c-41.23,0-93.296,37.483-95.446,39.045c-0.027,0.02-0.055,0.039-0.083,0.06C216.99,168.848,148.4,219.218,150.449,264.406z"/>
	<g>
		<path d="M437.951,512.639c0,46.283-59.668,27.523-81.025,27.523c-21.395,0-81.063,18.521-81.063-27.523
			c12.27,38.76,53.155,15.959,81.063,15.959C384.832,528.598,425.682,551.398,437.951,512.639z"/>
		<path d="M531.706,326.758c44.018,14.303,7.737,65.254,1.136,85.564c-6.611,20.348-7.435,82.818-51.224,68.592
			c40.654,0.307,31.603-45.623,40.227-72.164S564.777,350.404,531.706,326.758z"/>
		<path d="M383.895,180.15c27.205-37.443,64.45,12.807,81.729,25.359c17.308,12.576,76.467,32.664,49.403,69.914
			c12.856-38.57-33.623-44.154-56.201-60.557C436.249,198.462,416.603,156.003,383.895,180.15z"/>
		<path d="M198.786,275.423c-27.204-37.443,32.096-57.338,49.375-69.893c17.308-12.574,54.693-62.631,81.757-25.381
			c-32.709-24.145-52.383,18.334-74.96,34.736C232.38,231.289,185.93,236.853,198.786,275.423z"/>
		<path d="M232.195,480.914c-44.019,14.303-44.613-48.244-51.214-68.557c-6.61-20.346-42.664-71.369,1.125-85.6
			c-33.07,23.648,1.248,55.484,9.873,82.025C200.602,435.326,191.54,481.221,232.195,480.914z"/>
	</g>
	<g>
		<path d="M240.142,378.889c3.419,4.705,7.452,8.201,11.816,10.367c-2.009,3.832-3.181,8.365-3.41,13.434
			c-0.91,20.084,12.259,44.705,31.314,58.545c12.989,9.434,29.771,14.844,46.043,14.844c13.499,0,24.401-3.865,30.982-10.566
			c6.579,6.697,17.478,10.563,30.972,10.563c16.05,0,33.28-5.559,46.091-14.867c19.035-13.836,32.188-38.445,31.277-58.516
			c-0.23-5.068-1.401-9.602-3.41-13.434c4.362-2.168,8.392-5.664,11.808-10.367c11.712-16.123,14.967-42.539,7.913-64.24
			c-8.659-26.636-33.93-49.14-55.183-49.14c-1.582,0-3.124,0.131-4.616,0.386c-0.632-4.269-2.346-8.612-5.131-12.835
			c-11.065-16.778-36.187-28.956-59.734-28.956h-0.012c-23.53,0.004-48.636,12.181-59.697,28.954
			c-2.785,4.224-4.5,8.568-5.131,12.837c-1.491-0.254-3.032-0.385-4.612-0.385c-21.263,0-46.542,22.524-55.201,49.186
			C225.176,336.381,228.435,362.777,240.142,378.889z M350.463,451.941c-2.435,8.318-14.646,11.293-24.559,11.293
			c-13.42,0-27.811-4.633-38.495-12.393c-17.725-12.873-26.641-34.119-26.031-47.572c0.26-5.734,2.097-9.795,5.463-12.08
			l2.565-0.834l24.058-7.816c9.808,22.648,31.397,39.041,56.998,41.414V451.941z M300.649,355.182
			c0-16.363,7.029-31.111,18.221-41.398c3.152-2.896,6.638-5.432,10.387-7.557c8.167-4.627,17.59-7.283,27.628-7.283
			c10.037,0,19.46,2.656,27.626,7.283c3.75,2.123,7.236,4.658,10.388,7.557c11.192,10.285,18.222,25.035,18.222,41.398
			c0,3.816-0.386,7.547-1.115,11.152c-0.862,4.266-2.218,8.352-3.989,12.211c-8.037,17.52-24.807,30.221-44.709,32.494
			c-2.11,0.242-4.251,0.379-6.424,0.379c-2.172,0-4.313-0.137-6.422-0.379c-19.903-2.273-36.673-14.975-44.71-32.492
			c-1.771-3.859-3.127-7.945-3.989-12.211C301.035,362.729,300.649,359,300.649,355.182z M426.397,450.816
			c-10.696,7.771-25.103,12.412-38.54,12.412c-9.909,0-22.116-2.971-24.549-11.287v-27.99c25.601-2.371,47.189-18.766,56.997-41.412
			l26.628,8.652c3.364,2.287,5.2,6.348,5.461,12.082C453.005,416.717,444.101,437.949,426.397,450.816z M418.959,280.668
			c2-1.556,4.427-2.313,7.395-2.313c14.104,0,35.476,17.221,42.967,40.266c6.467,19.896,1.689,42.012-6.089,52.719
			c-2.531,3.484-6.667,7.639-11.993,7.639c-0.111,0-0.222-0.002-0.332-0.006l-26.633-8.652c1.095-4.877,1.691-9.938,1.691-15.139
			c0-20.631-9.101-39.164-23.485-51.832L418.959,280.668z M307.887,260.13c7.408-11.235,27.091-23.178,48.976-23.182l0.01-6.422
			v6.422c21.903,0,41.6,11.945,49.012,23.184c3.16,4.792,4.061,9.157,2.682,12.986l-16.466,22.663
			c-10.32-6.142-22.359-9.682-35.215-9.682c-12.856,0-24.897,3.541-35.217,9.684l-16.465-22.664
			C303.825,269.29,304.726,264.923,307.887,260.13z M244.436,318.664c7.492-23.07,28.873-40.308,42.984-40.308
			c2.965,0,5.39,0.757,7.39,2.312l16.479,22.682c-14.384,12.67-23.485,31.203-23.485,51.832c0,5.201,0.597,10.264,1.692,15.141
			l-26.625,8.65c-5.492,0.166-9.752-4.074-12.338-7.635C242.758,360.639,237.979,338.543,244.436,318.664z"/>
	</g>
</g>
</svg>
